<svg width="6" height="6" viewBox="0 0 6 6" fill="none" xmlns="http://www.w3.org/2000/svg">
<g clip-path="url(#clip0_0_1211)">
<path d="M2.28818 1.35199C2.60493 0.783991 2.76318 0.49999 2.99993 0.49999C3.23668 0.49999 3.39493 0.783991 3.71169 1.35199L3.79369 1.49899C3.88369 1.66049 3.92869 1.74124 3.99869 1.79449C4.06869 1.84774 4.15619 1.86749 4.33119 1.90699L4.49019 1.94299C5.10519 2.08225 5.41244 2.15175 5.48569 2.387C5.55869 2.622 5.34919 2.86725 4.92994 3.3575L4.82144 3.48425C4.70244 3.6235 4.64269 3.69325 4.61594 3.77925C4.58919 3.8655 4.59819 3.9585 4.61619 4.14425L4.63269 4.3135C4.69594 4.96776 4.72769 5.29476 4.53619 5.44001C4.34469 5.58526 4.05669 5.45276 3.48118 5.18776L3.33193 5.11926C3.16843 5.04376 3.08668 5.00626 2.99993 5.00626C2.91318 5.00626 2.83143 5.04376 2.66793 5.11926L2.51893 5.18776C1.94318 5.45276 1.65518 5.58526 1.46393 5.44026C1.27218 5.29476 1.30393 4.96776 1.36718 4.3135L1.38368 4.1445C1.40168 3.9585 1.41068 3.8655 1.38368 3.7795C1.35718 3.69325 1.29743 3.6235 1.17843 3.4845L1.06993 3.3575C0.650674 2.8675 0.441173 2.62225 0.514173 2.387C0.587174 2.15175 0.894925 2.082 1.50993 1.94299L1.66893 1.90699C1.84368 1.86749 1.93093 1.84774 2.00118 1.79449C2.07143 1.74124 2.11618 1.66049 2.20618 1.49899L2.28818 1.35199Z" fill="url(#paint0_linear_0_1211)"/>
</g>
<defs>
<linearGradient id="paint0_linear_0_1211" x1="2.99993" y1="0.49999" x2="2.99993" y2="5.49998" gradientUnits="userSpaceOnUse">
<stop stop-color="#FFC947"/>
<stop offset="1" stop-color="#EF9A12"/>
</linearGradient>
<clipPath id="clip0_0_1211">
<rect width="5.85366" height="5.85366" fill="white" transform="scale(1.025)"/>
</clipPath>
</defs>
</svg>
