<svg width="10" height="10" viewBox="0 0 10 10" fill="none" xmlns="http://www.w3.org/2000/svg">
<g clip-path="url(#clip0_0_1209)">
<path d="M3.81361 2.25335C4.34153 1.30668 4.60528 0.833349 4.99986 0.833349C5.39444 0.833349 5.65819 1.30668 6.18611 2.25335L6.32278 2.49835C6.47278 2.76751 6.54778 2.9021 6.66444 2.99085C6.78111 3.0796 6.92694 3.11251 7.21861 3.17835L7.48361 3.23835C8.50861 3.47043 9.02069 3.58626 9.14277 3.97834C9.26444 4.37001 8.91527 4.77876 8.21652 5.59584L8.03569 5.80709C7.83736 6.03918 7.73778 6.15542 7.69319 6.29876C7.64861 6.44251 7.66361 6.59751 7.69361 6.90709L7.72111 7.18917C7.82652 8.27959 7.87944 8.82459 7.56028 9.06667C7.24111 9.30875 6.76111 9.08792 5.80194 8.64626L5.55319 8.53209C5.28069 8.40626 5.14445 8.34376 4.99986 8.34376C4.85528 8.34376 4.71903 8.40626 4.44653 8.53209L4.1982 8.64626C3.23861 9.08792 2.75862 9.30875 2.43987 9.06709C2.12028 8.82459 2.1732 8.27959 2.27862 7.18917L2.30612 6.90751C2.33612 6.59751 2.35112 6.44251 2.30612 6.29917C2.26195 6.15542 2.16237 6.03917 1.96403 5.80751L1.7832 5.59584C1.08445 4.77918 0.735285 4.37043 0.856951 3.97834C0.978618 3.58626 1.49153 3.47001 2.51653 3.23835L2.78153 3.17835C3.07278 3.11251 3.2182 3.0796 3.33528 2.99085C3.45236 2.9021 3.52695 2.76751 3.67695 2.49835L3.81361 2.25335Z" fill="url(#paint0_linear_0_1209)"/>
</g>
<defs>
<linearGradient id="paint0_linear_0_1209" x1="4.99986" y1="0.833349" x2="4.99986" y2="9.16662" gradientUnits="userSpaceOnUse">
<stop stop-color="#FFC947"/>
<stop offset="1" stop-color="#EF9A12"/>
</linearGradient>
<clipPath id="clip0_0_1209">
<rect width="9.95122" height="9.95122" fill="white" transform="scale(1.0049)"/>
</clipPath>
</defs>
</svg>
