<svg width="20" height="20" viewBox="0 0 20 20" fill="none" xmlns="http://www.w3.org/2000/svg">
<path d="M7.62729 4.50672C8.68312 2.61338 9.21062 1.66672 9.99979 1.66672C10.789 1.66672 11.3165 2.61338 12.3723 4.50672L12.6456 4.99672C12.9456 5.53505 13.0956 5.80422 13.329 5.98172C13.5623 6.15922 13.854 6.22505 14.4373 6.35672L14.9673 6.47672C17.0173 6.94088 18.0415 7.17255 18.2856 7.95672C18.529 8.74005 17.8306 9.55755 16.4331 11.1917L16.0715 11.6142C15.6748 12.0784 15.4756 12.3109 15.3865 12.5976C15.2973 12.8851 15.3273 13.1951 15.3873 13.8142L15.4423 14.3784C15.6531 16.5592 15.759 17.6492 15.1206 18.1334C14.4823 18.6176 13.5223 18.1759 11.604 17.2926L11.1065 17.0642C10.5615 16.8126 10.289 16.6876 9.99979 16.6876C9.71062 16.6876 9.43812 16.8126 8.89312 17.0642L8.39646 17.2926C6.47729 18.1759 5.51729 18.6176 4.87979 18.1342C4.24062 17.6492 4.34646 16.5592 4.55729 14.3784L4.61229 13.8151C4.67229 13.1951 4.70229 12.8851 4.61229 12.5984C4.52396 12.3109 4.32479 12.0784 3.92812 11.6151L3.56646 11.1917C2.16896 9.55838 1.47062 8.74088 1.71396 7.95672C1.95729 7.17255 2.98312 6.94005 5.03312 6.47672L5.56312 6.35672C6.14562 6.22505 6.43646 6.15922 6.67062 5.98172C6.90479 5.80422 7.05396 5.53505 7.35396 4.99672L7.62729 4.50672Z" fill="url(#paint0_linear_0_233)"/>
<defs>
<linearGradient id="paint0_linear_0_233" x1="9.99979" y1="1.66672" x2="9.99979" y2="18.3333" gradientUnits="userSpaceOnUse">
<stop stop-color="#FFC947"/>
<stop offset="1" stop-color="#EF9A12"/>
</linearGradient>
</defs>
</svg>
