<svg width="28" height="28" viewBox="0 0 28 28" fill="none" xmlns="http://www.w3.org/2000/svg">
<path d="M10.6782 6.30937C12.1564 3.65871 12.8949 2.33337 13.9997 2.33337C15.1045 2.33337 15.843 3.65871 17.3212 6.30937L17.7039 6.99537C18.1239 7.74904 18.3339 8.12587 18.6605 8.37437C18.9872 8.62287 19.3955 8.71504 20.2122 8.89937L20.9542 9.06737C23.8242 9.71721 25.258 10.0415 25.5999 11.1394C25.9405 12.236 24.9629 13.3805 23.0064 15.6684L22.5 16.2599C21.9447 16.9097 21.6659 17.2352 21.541 17.6365C21.4162 18.039 21.4582 18.473 21.5422 19.3399L21.6192 20.1297C21.9144 23.1829 22.0625 24.7089 21.1689 25.3867C20.2752 26.0645 18.9312 25.4462 16.2455 24.2095L15.549 23.8899C14.786 23.5375 14.4045 23.3625 13.9997 23.3625C13.5949 23.3625 13.2134 23.5375 12.4504 23.8899L11.755 24.2095C9.0682 25.4462 7.7242 26.0645 6.8317 25.3879C5.93687 24.7089 6.08504 23.1829 6.3802 20.1297L6.4572 19.341C6.5412 18.473 6.5832 18.039 6.4572 17.6377C6.33354 17.2352 6.0547 16.9097 5.49937 16.261L4.99304 15.6684C3.03654 13.3817 2.05887 12.2372 2.39954 11.1394C2.7402 10.0415 4.17637 9.71604 7.04637 9.06737L7.78837 8.89937C8.60387 8.71504 9.01104 8.62287 9.33887 8.37437C9.6667 8.12587 9.87554 7.74904 10.2955 6.99537L10.6782 6.30937Z" fill="url(#paint0_linear_0_1199)"/>
<defs>
<linearGradient id="paint0_linear_0_1199" x1="13.9997" y1="2.33337" x2="13.9997" y2="25.6666" gradientUnits="userSpaceOnUse">
<stop stop-color="#FFC947"/>
<stop offset="1" stop-color="#EF9A12"/>
</linearGradient>
</defs>
</svg>
