<svg width="36" height="36" viewBox="0 0 36 36" fill="none" xmlns="http://www.w3.org/2000/svg">
<path d="M10.4823 9.0405C10.3833 7.6605 11.2338 4.9275 13.5678 3.786C14.5308 3.201 17.1723 2.295 19.6983 3.909C22.1883 5.499 22.3563 7.842 22.5123 9.024" stroke="white" stroke-width="2.5" stroke-linecap="round" stroke-linejoin="round"/>
<path d="M25.7484 33.0015C25.6794 30.5475 25.8339 30.3045 26.0139 29.7585C26.1939 29.2125 27.4479 27.2445 27.8919 25.8375C29.3289 21.2865 27.9894 20.3175 26.2044 19.0275C24.2244 17.5965 20.6634 16.8855 18.8109 17.043V9.7845C18.8109 8.55 17.6274 7.539 16.3629 7.539C15.0984 7.539 13.9374 8.55 13.9374 9.7845V22.2525L11.3574 20.0175C10.5189 19.1265 9.17045 19.0365 8.24945 19.845C7.82962 20.2093 7.56523 20.7206 7.51055 21.2737C7.45588 21.8269 7.61507 22.38 7.95545 22.8195L9.65195 25.0155M9.65195 25.0155C10.0179 25.4805 10.4259 26.0055 10.8909 26.6205M9.65195 25.0155L10.8909 26.6205M9.65195 25.0155C8.90195 24.0645 8.33645 23.373 7.84895 22.686M13.8669 33.0015V31.722C13.9224 30.1425 12.7464 29.112 11.2134 27.051L10.8909 26.6205M10.8909 26.6205L12.4254 28.6095" stroke="white" stroke-width="2.5" stroke-linecap="round" stroke-linejoin="round"/>
</svg>
