<svg width="16" height="16" viewBox="0 0 16 16" fill="none" xmlns="http://www.w3.org/2000/svg">
<path d="M2.32565 5.52704L7.69713 3.06484C7.78992 3.0223 7.8941 3 8 3C8.1059 3 8.21008 3.0223 8.30287 3.06484L13.6744 5.52704C13.7513 5.56231 13.8186 5.61065 13.8718 5.66893C13.925 5.72721 13.9629 5.79414 13.9831 5.8654C14.0034 5.93666 14.0054 6.01065 13.9892 6.08262C13.973 6.15458 13.9388 6.22291 13.8889 6.28319L8.51714 12.7738C8.45935 12.8436 8.3821 12.9006 8.29202 12.94C8.20194 12.9794 8.10173 13 8 13C7.89827 13 7.79806 12.9794 7.70798 12.94C7.6179 12.9006 7.54065 12.8436 7.48286 12.7738L2.11107 6.28345C2.06119 6.22317 2.02703 6.15484 2.01081 6.08288C1.99458 6.01092 1.99665 5.93692 2.01687 5.86566C2.03709 5.79441 2.07502 5.72748 2.1282 5.66919C2.18139 5.61091 2.24865 5.56231 2.32565 5.52704Z" fill="#45607D"/>
</svg>
