<svg width="40" height="40" viewBox="0 0 40 40" fill="none" xmlns="http://www.w3.org/2000/svg">
<path d="M31.4822 18.3406L22.0862 10.1543C21.7027 9.82016 21.5186 9.43033 21.534 8.98482C21.5493 8.53931 21.7494 8.14949 22.1342 7.81535C22.5177 7.50906 22.9651 7.34867 23.4764 7.33419C23.9878 7.31972 24.4352 7.4801 24.8187 7.81535L37.4745 18.8418C37.6662 19.0089 37.8024 19.1899 37.8829 19.3848C37.9635 19.5797 38.0024 19.7885 37.9999 20.0113C37.9973 20.234 37.9571 20.4429 37.8791 20.6378C37.8011 20.8327 37.6656 21.0137 37.4726 21.1807L24.8168 32.2072C24.4653 32.5135 24.0255 32.6666 23.4975 32.6666C22.9696 32.6666 22.5145 32.5135 22.1322 32.2072C21.7487 31.8731 21.557 31.476 21.557 31.016C21.557 30.556 21.7487 30.1595 22.1322 29.8265L31.4822 21.6819L3.91754 21.6819C3.37424 21.6819 2.91851 21.5216 2.55034 21.2008C2.18217 20.88 1.99873 20.4835 2 20.0113C2.00128 19.539 2.18537 19.142 2.55225 18.8201C2.91914 18.4982 3.37424 18.3384 3.91754 18.3406L31.4822 18.3406Z" fill="white"/>
</svg>
