<svg width="20" height="20" viewBox="0 0 20 20" fill="none" xmlns="http://www.w3.org/2000/svg">
<path fill-rule="evenodd" clip-rule="evenodd" d="M4 5.50106C4 4.04208 4.63214 2.64287 5.75736 1.61122C6.88258 0.579574 8.4087 0 10 0C11.5913 0 13.1174 0.579574 14.2426 1.61122C15.3679 2.64287 16 4.04208 16 5.50106H17C17.5304 5.50106 18.0391 5.69425 18.4142 6.03813C18.7893 6.38201 19 6.84842 19 7.33474V16.5032C19 16.9895 18.7893 17.4559 18.4142 17.7998C18.0391 18.1437 17.5304 18.3369 17 18.3369H3C2.46957 18.3369 1.96086 18.1437 1.58579 17.7998C1.21071 17.4559 1 16.9895 1 16.5032V7.33474C1 6.84842 1.21071 6.38201 1.58579 6.03813C1.96086 5.69425 2.46957 5.50106 3 5.50106H4ZM10 1.83369C11.0609 1.83369 12.0783 2.22007 12.8284 2.90783C13.5786 3.5956 14 4.52841 14 5.50106H6C6 4.52841 6.42143 3.5956 7.17157 2.90783C7.92172 2.22007 8.93913 1.83369 10 1.83369ZM12 11.0021C12 11.324 11.9076 11.6402 11.732 11.9189C11.5565 12.1977 11.304 12.4291 11 12.5901V13.7526C11 13.9958 10.8946 14.229 10.7071 14.4009C10.5196 14.5729 10.2652 14.6695 10 14.6695C9.73478 14.6695 9.48043 14.5729 9.29289 14.4009C9.10536 14.229 9 13.9958 9 13.7526V12.5901C8.61874 12.3882 8.32077 12.0767 8.15231 11.7038C7.98384 11.3309 7.95429 10.9174 8.06824 10.5275C8.18219 10.1376 8.43326 9.7931 8.78253 9.54737C9.1318 9.30165 9.55975 9.16844 10 9.16843C10.5304 9.16843 11.0391 9.36162 11.4142 9.7055C11.7893 10.0494 12 10.5158 12 11.0021Z" fill="#E8EDFF"/>
</svg>
