<svg width="16" height="16" viewBox="0 0 16 16" fill="none" xmlns="http://www.w3.org/2000/svg">
<path d="M14.6666 5.44132V5.48999C14.6666 6.06332 14.6666 6.35065 14.5286 6.58532C14.3906 6.81999 14.1393 6.95932 13.638 7.23865L13.1093 7.53199C13.4733 6.29999 13.5953 4.97599 13.64 3.84399L13.6466 3.69665L13.648 3.66199C14.082 3.81265 14.326 3.92532 14.478 4.13599C14.6666 4.39799 14.6666 4.74599 14.6666 5.44132ZM1.33331 5.44132V5.48999C1.33331 6.06332 1.33331 6.35065 1.47131 6.58532C1.60931 6.81999 1.86065 6.95932 2.36198 7.23865L2.89131 7.53199C2.52665 6.29999 2.40465 4.97599 2.35998 3.84399L2.35331 3.69665L2.35265 3.66199C1.91798 3.81265 1.67398 3.92532 1.52198 4.13599C1.33331 4.39799 1.33331 4.74665 1.33331 5.44132Z" fill="white"/>
<path fill-rule="evenodd" clip-rule="evenodd" d="M10.918 1.56461C9.95347 1.40661 8.97743 1.32923 8.00002 1.33328C6.81136 1.33328 5.83136 1.43795 5.08202 1.56461C4.32269 1.69261 3.94336 1.75661 3.62602 2.14728C3.30936 2.53795 3.32602 2.95995 3.35936 3.80395C3.47469 6.70261 4.10002 10.3239 7.50002 10.6439V12.9999H6.54669C6.39263 13 6.24335 13.0535 6.12425 13.1512C6.00514 13.2489 5.92355 13.3849 5.89336 13.5359L5.76669 14.1666H4.00002C3.86742 14.1666 3.74024 14.2193 3.64647 14.3131C3.5527 14.4068 3.50002 14.534 3.50002 14.6666C3.50002 14.7992 3.5527 14.9264 3.64647 15.0202C3.74024 15.1139 3.86742 15.1666 4.00002 15.1666H12C12.1326 15.1666 12.2598 15.1139 12.3536 15.0202C12.4473 14.9264 12.5 14.7992 12.5 14.6666C12.5 14.534 12.4473 14.4068 12.3536 14.3131C12.2598 14.2193 12.1326 14.1666 12 14.1666H10.2334L10.1067 13.5359C10.0765 13.3849 9.99491 13.2489 9.8758 13.1512C9.75669 13.0535 9.60742 13 9.45336 12.9999H8.50002V10.6439C11.9 10.3239 12.526 6.70328 12.6407 3.80395C12.674 2.95995 12.6914 2.53728 12.374 2.14728C12.0567 1.75661 11.6774 1.69261 10.918 1.56461Z" fill="white"/>
</svg>
