<svg width="24" height="24" viewBox="0 0 24 24" fill="none" xmlns="http://www.w3.org/2000/svg">
<g clip-path="url(#clip0_470_4115)">
<path d="M5.75066 9.69326C6.61593 8.14165 7.04822 7.36584 7.69495 7.36584C8.34168 7.36584 8.77398 8.14165 9.63924 9.69326L9.86324 10.0948C10.1091 10.536 10.232 10.7566 10.4232 10.902C10.6145 11.0475 10.8535 11.1015 11.3315 11.2094L11.7659 11.3077C13.4459 11.6881 14.2852 11.8779 14.4853 12.5206C14.6847 13.1625 14.1124 13.8325 12.9671 15.1717L12.6708 15.5179C12.3457 15.8983 12.1825 16.0889 12.1094 16.3238C12.0363 16.5594 12.0609 16.8135 12.1101 17.3209L12.1551 17.7832C12.3279 19.5704 12.4147 20.4637 11.8915 20.8605C11.3684 21.2573 10.5817 20.8953 9.00959 20.1714L8.60188 19.9843C8.15524 19.778 7.93193 19.6756 7.69495 19.6756C7.45798 19.6756 7.23466 19.778 6.78803 19.9843L6.381 20.1714C4.80822 20.8953 4.02149 21.2573 3.49905 20.8612C2.97525 20.4637 3.06198 19.5704 3.23476 17.7832L3.27983 17.3216C3.329 16.8135 3.35359 16.5594 3.27983 16.3245C3.20744 16.0889 3.04422 15.8983 2.71915 15.5186L2.42276 15.1717C1.27749 13.8332 0.705197 13.1632 0.904612 12.5206C1.10403 11.8779 1.94471 11.6874 3.62471 11.3077L4.05905 11.2094C4.53642 11.1015 4.77476 11.0475 4.96666 10.902C5.15856 10.7566 5.28081 10.536 5.52666 10.0948L5.75066 9.69326Z" fill="url(#paint0_linear_470_4115)"/>
<g clip-path="url(#clip1_470_4115)">
<path d="M14.295 3.24242C14.8204 2.30037 15.0829 1.82935 15.4755 1.82935C15.8682 1.82935 16.1306 2.30037 16.656 3.24242L16.792 3.48622C16.9412 3.75408 17.0159 3.888 17.132 3.97632C17.2481 4.06464 17.3932 4.09739 17.6834 4.16291L17.9471 4.22261C18.9671 4.45357 19.4767 4.56883 19.5982 4.959C19.7193 5.34876 19.3718 5.75552 18.6765 6.56861L18.4965 6.77883C18.2992 7.00979 18.2001 7.12547 18.1557 7.2681C18.1113 7.41115 18.1263 7.56539 18.1561 7.87347L18.1835 8.15418C18.2884 9.23927 18.341 9.78161 18.0234 10.0225C17.7058 10.2634 17.2282 10.0437 16.2737 9.60415L16.0261 9.49054C15.755 9.36532 15.6194 9.30313 15.4755 9.30313C15.3316 9.30313 15.196 9.36532 14.9249 9.49054L14.6778 9.60415C13.7229 10.0437 13.2452 10.2634 12.928 10.0229C12.61 9.78161 12.6626 9.23927 12.7675 8.15418L12.7949 7.87388C12.8248 7.56539 12.8397 7.41115 12.7949 7.26852C12.7509 7.12547 12.6519 7.00978 12.4545 6.77925L12.2745 6.56861C11.5792 5.75593 11.2317 5.34918 11.3528 4.959C11.4739 4.56883 11.9843 4.45315 13.0043 4.22261L13.268 4.16291C13.5578 4.09739 13.7025 4.06464 13.819 3.97632C13.9356 3.888 14.0098 3.75408 14.159 3.48622L14.295 3.24242Z" fill="url(#paint1_linear_470_4115)"/>
</g>
<g clip-path="url(#clip2_470_4115)">
<path d="M19.7324 12.319C20.0414 11.7649 20.1958 11.4878 20.4268 11.4878C20.6577 11.4878 20.8121 11.7649 21.1212 12.319L21.2012 12.4624C21.289 12.62 21.3329 12.6988 21.4012 12.7507C21.4695 12.8027 21.5548 12.8219 21.7255 12.8605L21.8807 12.8956C22.4807 13.0315 22.7804 13.0993 22.8519 13.3288C22.9231 13.558 22.7187 13.7973 22.3097 14.2756L22.2038 14.3993C22.0877 14.5351 22.0295 14.6032 22.0034 14.6871C21.9773 14.7712 21.986 14.8619 22.0036 15.0432L22.0197 15.2083C22.0814 15.8466 22.1124 16.1656 21.9255 16.3073C21.7387 16.449 21.4577 16.3197 20.8963 16.0612L20.7507 15.9944C20.5912 15.9207 20.5114 15.8841 20.4268 15.8841C20.3421 15.8841 20.2624 15.9207 20.1029 15.9944L19.9575 16.0612C19.3958 16.3197 19.1148 16.449 18.9282 16.3075C18.7412 16.1656 18.7721 15.8466 18.8338 15.2083L18.8499 15.0434C18.8675 14.8619 18.8763 14.7712 18.8499 14.6873C18.8241 14.6032 18.7658 14.5351 18.6497 14.3995L18.5438 14.2756C18.1348 13.7975 17.9304 13.5583 18.0016 13.3288C18.0729 13.0993 18.3731 13.0312 18.9731 12.8956L19.1282 12.8605C19.2987 12.8219 19.3838 12.8027 19.4524 12.7507C19.5209 12.6988 19.5646 12.62 19.6524 12.4624L19.7324 12.319Z" fill="url(#paint2_linear_470_4115)"/>
</g>
</g>
<defs>
<linearGradient id="paint0_linear_470_4115" x1="7.69495" y1="7.36584" x2="7.69495" y2="21.0243" gradientUnits="userSpaceOnUse">
<stop stop-color="#FFC947"/>
<stop offset="1" stop-color="#EF9A12"/>
</linearGradient>
<linearGradient id="paint1_linear_470_4115" x1="15.4755" y1="1.82935" x2="15.4755" y2="10.122" gradientUnits="userSpaceOnUse">
<stop stop-color="#FFC947"/>
<stop offset="1" stop-color="#EF9A12"/>
</linearGradient>
<linearGradient id="paint2_linear_470_4115" x1="20.4268" y1="11.4878" x2="20.4268" y2="16.3658" gradientUnits="userSpaceOnUse">
<stop stop-color="#FFC947"/>
<stop offset="1" stop-color="#EF9A12"/>
</linearGradient>
<clipPath id="clip0_470_4115">
<rect width="24" height="24" fill="white"/>
</clipPath>
<clipPath id="clip1_470_4115">
<rect width="9.95122" height="9.95122" fill="white" transform="translate(10.5 1)"/>
</clipPath>
<clipPath id="clip2_470_4115">
<rect width="5.85366" height="5.85366" fill="white" transform="translate(17.5 11)"/>
</clipPath>
</defs>
</svg>
