<svg width="29" height="34" viewBox="0 0 29 34" fill="none" xmlns="http://www.w3.org/2000/svg">
<path d="M14.655 0.487977C14.9675 0.175525 15.3914 0 15.8333 0C16.2753 0 16.6991 0.175525 17.0117 0.487977L22.0117 5.48798C22.3241 5.80052 22.4996 6.22437 22.4996 6.66631C22.4996 7.10825 22.3241 7.5321 22.0117 7.84464L17.0117 12.8446C16.6973 13.1482 16.2763 13.3162 15.8393 13.3124C15.4023 13.3086 14.9843 13.1334 14.6753 12.8243C14.3663 12.5153 14.191 12.0973 14.1872 11.6603C14.1834 11.2233 14.3514 10.8023 14.655 10.488L16.81 8.33298H14.1667C8.25333 8.33298 3.33333 13.253 3.33333 19.1663C3.33333 25.0796 8.25333 29.9996 14.1667 29.9996C20.08 29.9996 25 25.0796 25 19.1663C25 18.7243 25.1756 18.3004 25.4882 17.9878C25.8007 17.6752 26.2246 17.4996 26.6667 17.4996C27.1087 17.4996 27.5326 17.6752 27.8452 17.9878C28.1577 18.3004 28.3333 18.7243 28.3333 19.1663C28.3333 26.9196 21.92 33.333 14.1667 33.333C6.41333 33.333 0 26.9196 0 19.1663C0 11.413 6.41333 4.99964 14.1667 4.99964H16.81L14.655 2.84464C14.3425 2.5321 14.167 2.10825 14.167 1.66631C14.167 1.22437 14.3425 0.800523 14.655 0.487977Z" fill="white"/>
</svg>
