<svg width="223" height="594" viewBox="0 0 223 594" fill="none" xmlns="http://www.w3.org/2000/svg">
<path d="M219.347 243.436L222.345 243.329L219.347 243.436ZM28.847 424.936L31.7491 424.176L28.847 424.936ZM79.7851 588.757C78.5816 589.895 78.5292 591.794 79.668 592.998C80.8068 594.201 82.7056 594.253 83.909 593.115L79.7851 588.757ZM94.1866 583.016C95.3443 581.831 95.3219 579.932 94.1367 578.774C92.9514 577.616 91.052 577.639 89.8943 578.824L94.1866 583.016ZM108.436 557.539C107.441 558.864 107.709 560.745 109.034 561.739C110.359 562.734 112.239 562.466 113.234 561.141L108.436 557.539ZM127.624 535.585C128.16 534.017 127.323 532.312 125.755 531.776C124.187 531.241 122.482 532.077 121.946 533.645L127.624 535.585ZM121.172 508.325C121.916 509.806 123.72 510.403 125.2 509.659C126.68 508.914 127.277 507.111 126.533 505.631L121.172 508.325ZM105.921 484.239C104.558 483.298 102.689 483.641 101.748 485.005C100.807 486.368 101.15 488.237 102.513 489.178L105.921 484.239ZM78.2293 474.75C79.6779 475.554 81.5041 475.031 82.3082 473.582C83.1122 472.134 82.5896 470.308 81.1409 469.504L78.2293 474.75ZM56.9254 455.004C55.5631 454.061 53.6943 454.401 52.7512 455.764C51.8082 457.126 52.148 458.995 53.5103 459.938L56.9254 455.004ZM32.2152 439.526C33.1316 440.906 34.9935 441.282 36.3738 440.366C37.7542 439.45 38.1302 437.588 37.2138 436.207L32.2152 439.526ZM29.2915 412.161C29.0599 410.52 27.5423 409.378 25.9017 409.61C24.2611 409.841 23.1188 411.359 23.3503 413L29.2915 412.161ZM24.422 386.859C23.9834 388.457 24.9231 390.108 26.5209 390.546C28.1186 390.985 29.7694 390.045 30.2079 388.447L24.422 386.859ZM42.4892 368.998C43.7301 367.9 43.8461 366.004 42.7483 364.763C41.6505 363.522 39.7545 363.406 38.5136 364.504L42.4892 368.998ZM60.9141 351.327C59.3787 351.95 58.6387 353.699 59.2614 355.234C59.884 356.77 61.6334 357.51 63.1689 356.887L60.9141 351.327ZM86.7355 349.417C88.3403 349.005 89.3071 347.37 88.895 345.765C88.4829 344.16 86.8478 343.193 85.243 343.606L86.7355 349.417ZM109.809 337.912C108.19 338.268 107.167 339.868 107.522 341.486C107.877 343.104 109.478 344.128 111.096 343.772L109.809 337.912ZM135.671 338.12C137.278 337.717 138.253 336.087 137.85 334.48C137.446 332.873 135.816 331.897 134.209 332.301L135.671 338.12ZM158.011 325.249C156.451 325.806 155.637 327.522 156.195 329.082C156.752 330.643 158.468 331.456 160.029 330.899L158.011 325.249ZM183.354 320.236C184.781 319.394 185.256 317.555 184.414 316.128C183.572 314.701 181.733 314.227 180.306 315.069L183.354 320.236ZM199.039 299.962C197.939 301.201 198.052 303.097 199.291 304.197C200.53 305.298 202.426 305.185 203.526 303.946L199.039 299.962ZM216.914 281.622C217.494 280.07 216.706 278.342 215.154 277.762C213.602 277.182 211.874 277.97 211.294 279.522L216.914 281.622ZM216.174 255.796C216.062 257.449 217.31 258.88 218.963 258.993C220.616 259.106 222.048 257.857 222.161 256.204L216.174 255.796ZM220.657 229.216C220.315 227.595 218.723 226.559 217.102 226.902C215.481 227.244 214.444 228.836 214.787 230.457L220.657 229.216ZM204.371 206.652C205.337 207.998 207.212 208.305 208.558 207.339C209.904 206.373 210.211 204.499 209.245 203.153L204.371 206.652ZM188.812 183.636C187.444 182.702 185.577 183.054 184.643 184.422C183.709 185.791 184.061 187.657 185.43 188.591L188.812 183.636ZM161.771 176.215C163.306 176.838 165.056 176.097 165.678 174.562C166.301 173.027 165.561 171.277 164.025 170.655L161.771 176.215ZM137.665 161.96C136.066 161.528 134.419 162.475 133.988 164.075C133.556 165.675 134.503 167.321 136.103 167.753L137.665 161.96ZM109.584 161.633C111.208 161.958 112.789 160.905 113.114 159.28C113.44 157.656 112.387 156.075 110.762 155.75L109.584 161.633ZM83.7198 150.769C82.0878 150.483 80.5332 151.575 80.2476 153.207C79.9621 154.839 81.0536 156.394 82.6856 156.679L83.7198 150.769ZM55.6402 151.77C57.2655 152.092 58.844 151.036 59.1659 149.41C59.4878 147.785 58.4312 146.207 56.806 145.885L55.6402 151.77ZM30.661 139.427C29.0863 138.912 27.3921 139.77 26.8767 141.345C26.3614 142.92 27.2202 144.614 28.7949 145.129L30.661 139.427ZM4.0418 130.251C5.01924 131.589 6.89613 131.881 8.23396 130.904C9.57178 129.926 9.86392 128.049 8.88648 126.712L4.0418 130.251ZM10.1615 104.113C10.9429 102.652 10.3921 100.834 8.93111 100.052C7.47013 99.2708 5.65226 99.8217 4.87079 101.283L10.1615 104.113ZM21.6216 78.8918C20.5007 80.1119 20.581 82.0097 21.8011 83.1307C23.0211 84.2516 24.9189 84.1713 26.0399 82.9512L21.6216 78.8918ZM45.2114 64.1512C46.4405 63.0401 46.5362 61.143 45.425 59.9139C44.3139 58.6848 42.4169 58.5892 41.1878 59.7003L45.2114 64.1512ZM62.1591 41.7498C60.8762 42.7983 60.6862 44.6882 61.7347 45.9711C62.7832 47.254 64.6731 47.444 65.956 46.3956L62.1591 41.7498ZM87.3344 29.5094C88.6494 28.5015 88.8983 26.6184 87.8904 25.3034C86.8824 23.9884 84.9993 23.7395 83.6843 24.7474L87.3344 29.5094ZM105.555 8.37602C104.218 9.35531 103.928 11.2326 104.908 12.5691C105.887 13.9055 107.764 14.1951 109.101 13.2158L105.555 8.37602ZM81.847 590.936L83.909 593.115C87.5821 589.639 91.0044 586.275 94.1866 583.016L92.0405 580.92L89.8943 578.824C86.7716 582.021 83.4059 585.33 79.7851 588.757L81.847 590.936ZM110.835 559.34L113.234 561.141C120.32 551.703 125.004 543.253 127.624 535.585L124.785 534.615L121.946 533.645C119.589 540.543 115.272 548.434 108.436 557.539L110.835 559.34ZM123.853 506.978L126.533 505.631C122.263 497.134 114.686 490.288 105.921 484.239L104.217 486.708L102.513 489.178C110.975 495.017 117.574 501.165 121.172 508.325L123.853 506.978ZM79.6851 472.127L81.1409 469.504C72.7383 464.84 64.3945 460.175 56.9254 455.004L55.2178 457.471L53.5103 459.938C61.262 465.304 69.8635 470.107 78.2293 474.75L79.6851 472.127ZM34.7145 437.867L37.2138 436.207C34.7542 432.503 32.8872 428.521 31.7491 424.176L28.847 424.936L25.9449 425.696C27.267 430.744 29.4276 435.327 32.2152 439.526L34.7145 437.867ZM28.847 424.936L31.7491 424.176C30.6315 419.908 29.8205 415.91 29.2915 412.161L26.3209 412.58L23.3503 413C23.9153 417.003 24.7751 421.229 25.9449 425.696L28.847 424.936ZM27.315 387.653L30.2079 388.447C32.3956 380.477 36.6393 374.173 42.4892 368.998L40.5014 366.751L38.5136 364.504C31.8758 370.376 26.9468 377.661 24.422 386.859L27.315 387.653ZM62.0415 354.107L63.1689 356.887C70.3205 353.987 78.2687 351.591 86.7355 349.417L85.9893 346.511L85.243 343.606C76.6457 345.813 68.4125 348.286 60.9141 351.327L62.0415 354.107ZM110.452 340.842L111.096 343.772C119.213 341.989 127.498 340.173 135.671 338.12L134.94 335.211L134.209 332.301C126.139 334.328 117.943 336.125 109.809 337.912L110.452 340.842ZM159.02 328.074L160.029 330.899C168.25 327.964 176.128 324.499 183.354 320.236L181.83 317.652L180.306 315.069C173.49 319.089 165.977 322.405 158.011 325.249L159.02 328.074ZM201.283 301.954L203.526 303.946C209.109 297.658 213.671 290.298 216.914 281.622L214.104 280.572L211.294 279.522C208.315 287.49 204.142 294.215 199.039 299.962L201.283 301.954ZM219.167 256L222.161 256.204C222.439 252.117 222.505 247.829 222.345 243.329L219.347 243.436L216.349 243.542C216.502 247.849 216.438 251.929 216.174 255.796L219.167 256ZM219.347 243.436L222.345 243.329C222.169 238.36 221.597 233.661 220.657 229.216L217.722 229.837L214.787 230.457C215.651 234.546 216.184 238.9 216.349 243.542L219.347 243.436ZM206.808 204.902L209.245 203.153C203.751 195.499 196.785 189.079 188.812 183.636L187.121 186.114L185.43 188.591C192.933 193.714 199.356 199.665 204.371 206.652L206.808 204.902ZM162.898 173.435L164.025 170.655C155.646 167.258 146.764 164.415 137.665 161.96L136.884 164.856L136.103 167.753C145.032 170.162 153.672 172.932 161.771 176.215L162.898 173.435ZM110.173 158.691L110.762 155.75C101.637 153.922 92.5292 152.31 83.7198 150.769L83.2027 153.724L82.6856 156.679C91.4953 158.221 100.538 159.821 109.584 161.633L110.173 158.691ZM56.2231 148.827L56.806 145.885C47.0334 143.949 38.1788 141.887 30.661 139.427L29.728 142.278L28.7949 145.129C36.6542 147.701 45.7844 149.818 55.6402 151.77L56.2231 148.827ZM6.46414 128.481L8.88648 126.712C5.12544 121.564 4.54185 114.619 10.1615 104.113L7.51613 102.698L4.87079 101.283C-1.38158 112.972 -1.56765 122.574 4.0418 130.251L6.46414 128.481ZM23.8308 80.9215L26.0399 82.9512C31.2775 77.2507 37.6306 71.0043 45.2114 64.1512L43.1996 61.9257L41.1878 59.7003C33.5036 66.647 27.0123 73.0247 21.6216 78.8918L23.8308 80.9215ZM64.0576 44.0727L65.956 46.3956C72.474 41.0685 79.5892 35.4461 87.3344 29.5094L85.5094 27.1284L83.6843 24.7474C75.8961 30.717 68.7314 36.3783 62.1591 41.7498L64.0576 44.0727ZM107.328 10.7959L109.101 13.2158C112.817 10.4925 116.649 7.71146 120.599 4.87119L118.847 2.43561L117.096 3.02792e-05C113.132 2.85019 109.286 5.64173 105.555 8.37602L107.328 10.7959Z" fill="url(#paint0_linear_393_2676)"/>
<defs>
<linearGradient id="paint0_linear_393_2676" x1="103.157" y1="2.43561" x2="103.157" y2="590.936" gradientUnits="userSpaceOnUse">
<stop stop-color="#AACDFF"/>
<stop offset="1" stop-color="#5A92E4"/>
</linearGradient>
</defs>
</svg>
