<svg width="230" height="154" viewBox="0 0 230 154" fill="none" xmlns="http://www.w3.org/2000/svg">
<path fill-rule="evenodd" clip-rule="evenodd" d="M99.5788 42.5937C99.5788 42.9698 99.5047 43.3422 99.3608 43.6896C99.2169 44.0371 99.006 44.3528 98.74 44.6187C98.4741 44.8846 98.1584 45.0956 97.811 45.2395C97.4635 45.3834 97.0911 45.4575 96.7151 45.4575C96.339 45.4575 95.9666 45.3834 95.6192 45.2395C95.2717 45.0956 94.956 44.8846 94.6901 44.6187C94.4242 44.3528 94.2132 44.0371 94.0693 43.6896C93.9254 43.3422 93.8513 42.9698 93.8513 42.5937C93.8513 41.8342 94.153 41.1058 94.6901 40.5688C95.2271 40.0317 95.9556 39.73 96.7151 39.73C97.4746 39.73 98.203 40.0317 98.74 40.5688C99.2771 41.1058 99.5788 41.8342 99.5788 42.5937ZM138.113 42.5937C138.113 43.3532 137.811 44.0817 137.274 44.6187C136.737 45.1558 136.008 45.4575 135.249 45.4575C134.489 45.4575 133.761 45.1558 133.224 44.6187C132.687 44.0817 132.385 43.3532 132.385 42.5937C132.385 41.8342 132.687 41.1058 133.224 40.5688C133.761 40.0317 134.489 39.73 135.249 39.73C136.008 39.73 136.737 40.0317 137.274 40.5688C137.811 41.1058 138.113 41.8342 138.113 42.5937Z" fill="#00A6ED"/>
<path fill-rule="evenodd" clip-rule="evenodd" d="M105.578 24.0519L111.342 31.7913L99.3975 33.1687L103.24 24.3056C102.316 23.9431 101.663 23.0369 101.663 21.9856C101.663 20.6081 102.787 19.4844 104.164 19.4844C104.697 19.4872 105.216 19.6599 105.644 19.9774C106.072 20.2949 106.388 20.7406 106.546 21.2498C106.703 21.7591 106.694 22.3053 106.52 22.8092C106.346 23.3131 106.016 23.7484 105.578 24.0519ZM128.706 24.3056L132.548 33.1687L120.604 31.7913L126.367 24.0519C125.715 23.5988 125.28 22.8375 125.28 21.9856C125.28 20.6081 126.404 19.4844 127.781 19.4844C129.159 19.4844 130.282 20.6081 130.282 21.9856C130.282 23.0369 129.63 23.9431 128.706 24.3056Z" fill="#E19747"/>
<path d="M141.339 23.7256C141.339 22.3481 140.215 21.2243 138.838 21.2243C137.46 21.2243 136.336 22.3481 136.336 23.7256C136.336 24.2331 136.499 24.7225 136.753 25.1031C136.354 25.1031 135.956 25.1937 135.575 25.4475L128.452 30.0512C127.509 30.6493 126.277 30.4318 125.606 29.5256L117.686 18.7775C117.629 18.6911 117.562 18.612 117.486 18.5418C118.093 18.208 118.571 17.6821 118.845 17.0468C119.12 16.4115 119.175 15.7029 119.003 15.0326C118.831 14.3623 118.44 13.7683 117.893 13.3442C117.346 12.9201 116.674 12.6899 115.982 12.6899C115.29 12.6899 114.617 12.9201 114.07 13.3442C113.523 13.7683 113.133 14.3623 112.961 15.0326C112.788 15.7029 112.844 16.4115 113.119 17.0468C113.393 17.6821 113.871 18.208 114.477 18.5418C114.405 18.6143 114.333 18.6868 114.278 18.7775L106.358 29.5256C105.705 30.4318 104.454 30.6493 103.512 30.0512L96.3887 25.4475C96.0081 25.1937 95.6094 25.1031 95.2106 25.1031C95.4825 24.7043 95.6275 24.2331 95.6275 23.7256C95.6275 22.3481 94.5038 21.2243 93.1263 21.2243C91.7488 21.2243 90.625 22.3481 90.625 23.7256C90.625 25.1031 91.7488 26.2268 93.1263 26.2268C93.2169 26.2268 93.3075 26.2268 93.38 26.2087C93.1444 26.6256 93.0538 27.115 93.1625 27.6406L97.875 51.1487C98.2194 52.8343 99.7056 54.0487 101.428 54.0487H130.536C132.258 54.0487 133.744 52.8343 134.089 51.1487L138.801 27.6406C138.91 27.115 138.801 26.6075 138.584 26.2087C138.674 26.2087 138.765 26.2268 138.838 26.2268C140.215 26.2268 141.339 25.1031 141.339 23.7256Z" fill="url(#paint0_linear_487_4753)"/>
<path d="M115.982 47.125C117.184 47.125 118.336 46.6476 119.186 45.7978C120.036 44.9481 120.513 43.7955 120.513 42.5938C120.513 41.392 120.036 40.2394 119.186 39.3897C118.336 38.5399 117.184 38.0625 115.982 38.0625C114.78 38.0625 113.628 38.5399 112.778 39.3897C111.928 40.2394 111.451 41.392 111.451 42.5938C111.451 43.7955 111.928 44.9481 112.778 45.7978C113.628 46.6476 114.78 47.125 115.982 47.125Z" fill="#00A6ED"/>
<path fill-rule="evenodd" clip-rule="evenodd" d="M106.938 42.5938C106.938 43.3148 106.651 44.0063 106.141 44.5162C105.631 45.0261 104.94 45.3125 104.219 45.3125C103.498 45.3125 102.806 45.0261 102.296 44.5162C101.786 44.0063 101.5 43.3148 101.5 42.5938C101.5 41.8727 101.786 41.1812 102.296 40.6713C102.806 40.1614 103.498 39.875 104.219 39.875C104.94 39.875 105.631 40.1614 106.141 40.6713C106.651 41.1812 106.938 41.8727 106.938 42.5938ZM130.5 42.5938C130.5 43.3148 130.214 44.0063 129.704 44.5162C129.194 45.0261 128.502 45.3125 127.781 45.3125C127.06 45.3125 126.369 45.0261 125.859 44.5162C125.349 44.0063 125.062 43.3148 125.062 42.5938C125.062 41.8727 125.349 41.1812 125.859 40.6713C126.369 40.1614 127.06 39.875 127.781 39.875C128.502 39.875 129.194 40.1614 129.704 40.6713C130.214 41.1812 130.5 41.8727 130.5 42.5938Z" fill="#F8312F"/>
<g clip-path="url(#clip0_487_4753)">
<path d="M24.5947 88.8784C24.7137 87.9074 25.9982 87.6472 26.4857 88.4954L29.3452 93.4746C29.9743 94.5691 30.8497 95.502 31.902 96.1993C32.9542 96.8967 34.1545 97.3394 35.4076 97.4923L41.1043 98.1892C42.0754 98.3082 42.3356 99.5927 41.4874 100.08L36.5082 102.94C35.4137 103.569 34.4808 104.444 33.7835 105.496C33.0861 106.549 32.6434 107.749 32.4905 109.002L31.7936 114.699C31.7685 114.911 31.6771 115.11 31.5322 115.268C31.3873 115.425 31.1964 115.533 30.9868 115.575C30.7772 115.618 30.5595 115.593 30.3648 115.504C30.1701 115.416 30.0083 115.268 29.9026 115.082L27.0431 110.103C26.4143 109.008 25.5394 108.076 24.4876 107.378C23.4358 106.681 22.2361 106.238 20.9835 106.084L15.2839 105.388C15.0715 105.363 14.8724 105.272 14.715 105.127C14.5577 104.982 14.4501 104.791 14.4076 104.581C14.3652 104.372 14.39 104.154 14.4786 103.959C14.5671 103.765 14.715 103.603 14.9009 103.497L19.8801 100.638C20.9743 100.009 21.9071 99.1339 22.6046 98.0821C23.302 97.0303 23.745 95.8306 23.8983 94.578L24.5947 88.8784ZM11.0992 76.98C11.1145 76.8526 11.1696 76.7333 11.2566 76.639C11.3437 76.5447 11.4582 76.4803 11.5839 76.4548C11.7097 76.4293 11.8403 76.4441 11.9571 76.4971C12.074 76.5501 12.1712 76.6385 12.2349 76.7499L13.9505 79.7369C14.7166 81.0682 16.0624 81.9606 17.5869 82.1483L21.006 82.5662C21.1334 82.5815 21.2527 82.6366 21.347 82.7237C21.4413 82.8107 21.5057 82.9252 21.5312 83.051C21.5567 83.1767 21.5419 83.3073 21.4889 83.4241C21.4359 83.541 21.3475 83.6382 21.2361 83.7019L18.2491 85.4175C17.5919 85.7941 17.0316 86.3189 16.613 86.9502C16.1943 87.5816 15.9289 88.3019 15.8377 89.0539L15.4198 92.4731C15.4045 92.6005 15.3494 92.7198 15.2623 92.814C15.1753 92.9083 15.0608 92.9728 14.935 92.9982C14.8093 93.0237 14.6787 93.0089 14.5619 92.9559C14.445 92.9029 14.3478 92.8145 14.2841 92.7031L12.5685 89.7161C12.1919 89.0589 11.6671 88.4986 11.0358 88.08C10.4044 87.6613 9.6841 87.3959 8.93209 87.3048L5.51293 86.8868C5.38555 86.8715 5.26625 86.8164 5.17197 86.7294C5.0777 86.6423 5.01324 86.5278 4.98777 86.4021C4.9623 86.2763 4.97711 86.1457 5.03008 86.0289C5.08306 85.912 5.17152 85.8149 5.28288 85.7511L8.26986 84.0355C8.92713 83.659 9.48739 83.1341 9.90602 82.5028C10.3247 81.8715 10.5901 81.1511 10.6812 80.3991L11.0992 76.98ZM29.9993 70.1412C30.0106 70.0572 30.0478 69.9789 30.1057 69.917C30.1636 69.8551 30.2394 69.8128 30.3225 69.796C30.4055 69.7792 30.4918 69.7886 30.5692 69.8231C30.6467 69.8575 30.7114 69.9153 30.7545 69.9883L31.8979 71.9777C32.4081 72.8673 33.3064 73.463 34.3244 73.5868L36.602 73.8658C36.686 73.8771 36.7644 73.9143 36.8263 73.9722C36.8881 74.0301 36.9304 74.1059 36.9473 74.189C36.9641 74.2721 36.9546 74.3583 36.9202 74.4357C36.8857 74.5132 36.828 74.578 36.755 74.6211L34.7655 75.7644C34.3277 76.0167 33.9545 76.3672 33.6753 76.7882C33.3961 77.2093 33.2185 77.6895 33.1565 78.1909L32.8775 80.4685C32.8662 80.5525 32.8289 80.6309 32.771 80.6928C32.7131 80.7547 32.6373 80.797 32.5543 80.8138C32.4712 80.8306 32.3849 80.8211 32.3075 80.7867C32.2301 80.7522 32.1653 80.6945 32.1222 80.6215L30.9788 78.632C30.7266 78.1943 30.3761 77.8211 29.955 77.5418C29.5339 77.2626 29.0538 77.085 28.5523 77.023L26.2775 76.7434C26.1935 76.7321 26.1151 76.6949 26.0532 76.637C25.9913 76.5791 25.949 76.5033 25.9322 76.4202C25.9154 76.3372 25.9249 76.2509 25.9593 76.1735C25.9938 76.096 26.0515 76.0313 26.1245 75.9881L28.114 74.8448C29.0035 74.3346 29.5992 73.4363 29.723 72.4183L29.9993 70.1412Z" fill="url(#paint1_linear_487_4753)"/>
</g>
<g clip-path="url(#clip1_487_4753)">
<path d="M204.443 88.8787C204.324 87.9076 203.04 87.6474 202.552 88.4956L199.693 93.4749C199.064 94.5693 198.188 95.5022 197.136 96.1996C196.084 96.8969 194.884 97.3396 193.631 97.4925L187.934 98.1895C186.963 98.3084 186.702 99.593 187.551 100.08L192.53 102.94C193.624 103.569 194.557 104.444 195.255 105.497C195.952 106.549 196.395 107.749 196.548 109.002L197.245 114.699C197.27 114.912 197.361 115.111 197.506 115.268C197.651 115.425 197.842 115.533 198.051 115.575C198.261 115.618 198.479 115.593 198.673 115.504C198.868 115.416 199.03 115.268 199.135 115.082L201.995 110.103C202.624 109.009 203.499 108.076 204.55 107.378C205.602 106.681 206.802 106.238 208.055 106.085L213.754 105.388C213.967 105.363 214.166 105.272 214.323 105.127C214.48 104.982 214.588 104.791 214.63 104.582C214.673 104.372 214.648 104.154 214.56 103.959C214.471 103.765 214.323 103.603 214.137 103.497L209.158 100.638C208.064 100.009 207.131 99.1341 206.434 98.0824C205.736 97.0306 205.293 95.8309 205.14 94.5782L204.443 88.8787ZM217.939 76.9802C217.924 76.8528 217.868 76.7335 217.781 76.6392C217.694 76.545 217.58 76.4805 217.454 76.455C217.328 76.4296 217.198 76.4444 217.081 76.4973C216.964 76.5503 216.867 76.6388 216.803 76.7501L215.088 79.7371C214.322 81.0684 212.976 81.9609 211.451 82.1485L208.032 82.5664C207.905 82.5818 207.785 82.6369 207.691 82.7239C207.597 82.8109 207.532 82.9255 207.507 83.0512C207.481 83.177 207.496 83.3075 207.549 83.4244C207.602 83.5412 207.691 83.6384 207.802 83.7021L210.789 85.4177C211.446 85.7943 212.006 86.3192 212.425 86.9505C212.844 87.5818 213.109 88.3021 213.2 89.0542L213.618 92.4733C213.634 92.6007 213.689 92.72 213.776 92.8143C213.863 92.9085 213.977 92.973 214.103 92.9985C214.229 93.0239 214.359 93.0091 214.476 92.9562C214.593 92.9032 214.69 92.8147 214.754 92.7034L216.47 89.7164C216.846 89.0591 217.371 88.4989 218.002 88.0802C218.634 87.6616 219.354 87.3961 220.106 87.305L223.525 86.8871C223.653 86.8717 223.772 86.8166 223.866 86.7296C223.96 86.6426 224.025 86.5281 224.05 86.4023C224.076 86.2766 224.061 86.146 224.008 86.0291C223.955 85.9123 223.867 85.8151 223.755 85.7514L220.768 84.0358C220.111 83.6592 219.551 83.1343 219.132 82.503C218.713 81.8717 218.448 81.1514 218.357 80.3994L217.939 76.9802ZM199.039 70.1415C199.028 70.0575 198.99 69.9791 198.932 69.9172C198.874 69.8553 198.799 69.8131 198.716 69.7962C198.633 69.7794 198.546 69.7889 198.469 69.8233C198.391 69.8578 198.327 69.9155 198.284 69.9885L197.14 71.978C196.63 72.8675 195.732 73.4632 194.714 73.587L192.436 73.866C192.352 73.8773 192.274 73.9145 192.212 73.9725C192.15 74.0304 192.108 74.1062 192.091 74.1892C192.074 74.2723 192.083 74.3586 192.118 74.436C192.152 74.5134 192.21 74.5782 192.283 74.6213L194.273 75.7647C194.71 76.0169 195.084 76.3674 195.363 76.7885C195.642 77.2096 195.82 77.6897 195.882 78.1912L196.161 80.4688C196.172 80.5528 196.209 80.6312 196.267 80.693C196.325 80.7549 196.401 80.7972 196.484 80.814C196.567 80.8309 196.653 80.8214 196.731 80.7869C196.808 80.7525 196.873 80.6947 196.916 80.6218L198.059 78.6323C198.312 78.1945 198.662 77.8213 199.083 77.5421C199.504 77.2628 199.984 77.0852 200.486 77.0232L202.761 76.7437C202.845 76.7324 202.923 76.6952 202.985 76.6372C203.047 76.5793 203.089 76.5036 203.106 76.4205C203.123 76.3374 203.113 76.2512 203.079 76.1737C203.044 76.0963 202.987 76.0315 202.914 75.9884L200.924 74.845C200.035 74.3348 199.439 73.4365 199.315 72.4185L199.039 70.1415Z" fill="url(#paint2_linear_487_4753)"/>
</g>
<mask id="path-8-outside-1_487_4753" maskUnits="userSpaceOnUse" x="64" y="75" width="104" height="34" fill="black">
<rect fill="white" x="64" y="75" width="104" height="34"/>
<path d="M83.844 107.04C83.604 107.04 83.388 106.944 83.196 106.752C83.004 106.584 82.908 106.368 82.908 106.104V102H66.168C65.928 102 65.712 101.916 65.52 101.748C65.328 101.556 65.232 101.328 65.232 101.064V77.736C65.232 77.448 65.328 77.22 65.52 77.052C65.712 76.884 65.928 76.8 66.168 76.8H72.036C72.3 76.8 72.516 76.896 72.684 77.088C72.876 77.256 72.972 77.472 72.972 77.736V95.16H80.316V77.736C80.316 77.472 80.4 77.256 80.568 77.088C80.76 76.896 80.988 76.8 81.252 76.8H87.12C87.384 76.8 87.6 76.896 87.768 77.088C87.96 77.256 88.056 77.472 88.056 77.736V95.16H89.712C89.976 95.16 90.192 95.256 90.36 95.448C90.552 95.616 90.648 95.832 90.648 96.096V106.104C90.648 106.368 90.552 106.584 90.36 106.752C90.192 106.944 89.976 107.04 89.712 107.04H83.844ZM92.6938 102C92.4778 102 92.2858 101.928 92.1178 101.784C91.9738 101.616 91.9018 101.424 91.9018 101.208C91.9018 101.112 91.9258 101.028 91.9738 100.956L100.182 77.916C100.254 77.652 100.41 77.4 100.65 77.16C100.914 76.92 101.262 76.8 101.694 76.8H108.282C108.738 76.8 109.086 76.92 109.326 77.16C109.566 77.4 109.722 77.652 109.794 77.916L118.038 100.956C118.062 101.028 118.074 101.112 118.074 101.208C118.074 101.424 117.99 101.616 117.822 101.784C117.678 101.928 117.498 102 117.282 102H111.738C111.33 102 111.03 101.904 110.838 101.712C110.646 101.52 110.514 101.34 110.442 101.172L109.326 98.148H100.65L99.5338 101.172C99.4618 101.34 99.3298 101.52 99.1378 101.712C98.9698 101.904 98.6698 102 98.2378 102H92.6938ZM102.306 92.064H107.67L104.97 83.964L102.306 92.064ZM121.398 102C121.158 102 120.942 101.916 120.75 101.748C120.558 101.556 120.462 101.328 120.462 101.064V77.736C120.462 77.472 120.558 77.256 120.75 77.088C120.942 76.896 121.158 76.8 121.398 76.8H131.91C133.998 76.8 135.81 77.112 137.346 77.736C138.906 78.36 140.118 79.308 140.982 80.58C141.846 81.852 142.278 83.448 142.278 85.368C142.278 87.288 141.846 88.872 140.982 90.12C140.118 91.344 138.906 92.244 137.346 92.82C135.81 93.396 133.998 93.684 131.91 93.684H128.49V101.064C128.49 101.328 128.394 101.556 128.202 101.748C128.034 101.916 127.818 102 127.554 102H121.398ZM128.346 87.888H131.73C132.426 87.888 133.014 87.684 133.494 87.276C133.998 86.844 134.25 86.184 134.25 85.296C134.25 84.624 134.058 84.012 133.674 83.46C133.29 82.908 132.642 82.632 131.73 82.632H128.346V87.888ZM146.289 102C146.049 102 145.833 101.916 145.641 101.748C145.449 101.556 145.353 101.328 145.353 101.064V77.736C145.353 77.472 145.449 77.256 145.641 77.088C145.833 76.896 146.049 76.8 146.289 76.8H152.157C152.421 76.8 152.637 76.896 152.805 77.088C152.997 77.256 153.093 77.472 153.093 77.736V85.044H156.189C159.453 85.044 161.997 85.728 163.821 87.096C165.645 88.464 166.557 90.564 166.557 93.396C166.557 95.172 166.149 96.708 165.333 98.004C164.517 99.3 163.329 100.296 161.769 100.992C160.233 101.664 158.373 102 156.189 102H146.289ZM153.093 96.168H156.117C156.909 96.168 157.497 95.904 157.881 95.376C158.289 94.848 158.493 94.2 158.493 93.432C158.493 92.568 158.265 91.932 157.809 91.524C157.377 91.092 156.813 90.876 156.117 90.876H153.093V96.168Z"/>
</mask>
<path d="M83.844 107.04C83.604 107.04 83.388 106.944 83.196 106.752C83.004 106.584 82.908 106.368 82.908 106.104V102H66.168C65.928 102 65.712 101.916 65.52 101.748C65.328 101.556 65.232 101.328 65.232 101.064V77.736C65.232 77.448 65.328 77.22 65.52 77.052C65.712 76.884 65.928 76.8 66.168 76.8H72.036C72.3 76.8 72.516 76.896 72.684 77.088C72.876 77.256 72.972 77.472 72.972 77.736V95.16H80.316V77.736C80.316 77.472 80.4 77.256 80.568 77.088C80.76 76.896 80.988 76.8 81.252 76.8H87.12C87.384 76.8 87.6 76.896 87.768 77.088C87.96 77.256 88.056 77.472 88.056 77.736V95.16H89.712C89.976 95.16 90.192 95.256 90.36 95.448C90.552 95.616 90.648 95.832 90.648 96.096V106.104C90.648 106.368 90.552 106.584 90.36 106.752C90.192 106.944 89.976 107.04 89.712 107.04H83.844ZM92.6938 102C92.4778 102 92.2858 101.928 92.1178 101.784C91.9738 101.616 91.9018 101.424 91.9018 101.208C91.9018 101.112 91.9258 101.028 91.9738 100.956L100.182 77.916C100.254 77.652 100.41 77.4 100.65 77.16C100.914 76.92 101.262 76.8 101.694 76.8H108.282C108.738 76.8 109.086 76.92 109.326 77.16C109.566 77.4 109.722 77.652 109.794 77.916L118.038 100.956C118.062 101.028 118.074 101.112 118.074 101.208C118.074 101.424 117.99 101.616 117.822 101.784C117.678 101.928 117.498 102 117.282 102H111.738C111.33 102 111.03 101.904 110.838 101.712C110.646 101.52 110.514 101.34 110.442 101.172L109.326 98.148H100.65L99.5338 101.172C99.4618 101.34 99.3298 101.52 99.1378 101.712C98.9698 101.904 98.6698 102 98.2378 102H92.6938ZM102.306 92.064H107.67L104.97 83.964L102.306 92.064ZM121.398 102C121.158 102 120.942 101.916 120.75 101.748C120.558 101.556 120.462 101.328 120.462 101.064V77.736C120.462 77.472 120.558 77.256 120.75 77.088C120.942 76.896 121.158 76.8 121.398 76.8H131.91C133.998 76.8 135.81 77.112 137.346 77.736C138.906 78.36 140.118 79.308 140.982 80.58C141.846 81.852 142.278 83.448 142.278 85.368C142.278 87.288 141.846 88.872 140.982 90.12C140.118 91.344 138.906 92.244 137.346 92.82C135.81 93.396 133.998 93.684 131.91 93.684H128.49V101.064C128.49 101.328 128.394 101.556 128.202 101.748C128.034 101.916 127.818 102 127.554 102H121.398ZM128.346 87.888H131.73C132.426 87.888 133.014 87.684 133.494 87.276C133.998 86.844 134.25 86.184 134.25 85.296C134.25 84.624 134.058 84.012 133.674 83.46C133.29 82.908 132.642 82.632 131.73 82.632H128.346V87.888ZM146.289 102C146.049 102 145.833 101.916 145.641 101.748C145.449 101.556 145.353 101.328 145.353 101.064V77.736C145.353 77.472 145.449 77.256 145.641 77.088C145.833 76.896 146.049 76.8 146.289 76.8H152.157C152.421 76.8 152.637 76.896 152.805 77.088C152.997 77.256 153.093 77.472 153.093 77.736V85.044H156.189C159.453 85.044 161.997 85.728 163.821 87.096C165.645 88.464 166.557 90.564 166.557 93.396C166.557 95.172 166.149 96.708 165.333 98.004C164.517 99.3 163.329 100.296 161.769 100.992C160.233 101.664 158.373 102 156.189 102H146.289ZM153.093 96.168H156.117C156.909 96.168 157.497 95.904 157.881 95.376C158.289 94.848 158.493 94.2 158.493 93.432C158.493 92.568 158.265 91.932 157.809 91.524C157.377 91.092 156.813 90.876 156.117 90.876H153.093V96.168Z" fill="url(#paint3_linear_487_4753)"/>
<path d="M83.196 106.752L83.9031 106.045L83.8796 106.021L83.8545 105.999L83.196 106.752ZM82.908 102H83.908V101H82.908V102ZM65.52 101.748L64.8129 102.455L64.8364 102.479L64.8615 102.501L65.52 101.748ZM65.52 77.052L66.1785 77.8046L66.1785 77.8046L65.52 77.052ZM72.684 77.088L71.9314 77.7465L71.9753 77.7967L72.0255 77.8406L72.684 77.088ZM72.972 95.16H71.972V96.16H72.972V95.16ZM80.316 95.16V96.16H81.316V95.16H80.316ZM80.568 77.088L81.2751 77.7951L81.2751 77.7951L80.568 77.088ZM87.768 77.088L87.0154 77.7465L87.0593 77.7967L87.1095 77.8406L87.768 77.088ZM88.056 95.16H87.056V96.16H88.056V95.16ZM90.36 95.448L89.6074 96.1065L89.6513 96.1567L89.7015 96.2006L90.36 95.448ZM90.36 106.752L89.7015 105.999L89.6513 106.043L89.6074 106.093L90.36 106.752ZM83.844 107.04V106.04C83.8511 106.04 83.8618 106.041 83.8745 106.043C83.8873 106.046 83.8988 106.05 83.9081 106.054C83.9277 106.063 83.9251 106.067 83.9031 106.045L83.196 106.752L82.4889 107.459C82.8416 107.812 83.3031 108.04 83.844 108.04V107.04ZM83.196 106.752L83.8545 105.999C83.8589 106.003 83.8783 106.023 83.8938 106.058C83.9089 106.092 83.908 106.112 83.908 106.104H82.908H81.908C81.908 106.645 82.12 107.139 82.5375 107.505L83.196 106.752ZM82.908 106.104H83.908V102H82.908H81.908V106.104H82.908ZM82.908 102V101H66.168V102V103H82.908V102ZM66.168 102V101C66.1666 101 66.1688 101 66.1737 101.001C66.1786 101.002 66.1838 101.003 66.1884 101.005C66.1931 101.007 66.195 101.008 66.194 101.007C66.1928 101.007 66.1876 101.003 66.1785 100.995L65.52 101.748L64.8615 102.501C65.2233 102.817 65.6697 103 66.168 103V102ZM65.52 101.748L66.2271 101.041C66.2197 101.034 66.2177 101.03 66.2187 101.032C66.2198 101.033 66.2227 101.038 66.2256 101.045C66.2286 101.052 66.2305 101.059 66.2315 101.064C66.2324 101.069 66.232 101.069 66.232 101.064H65.232H64.232C64.232 101.602 64.4393 102.082 64.8129 102.455L65.52 101.748ZM65.232 101.064H66.232V77.736H65.232H64.232V101.064H65.232ZM65.232 77.736H66.232C66.232 77.7037 66.2371 77.7097 66.2256 77.7371C66.2201 77.7501 66.2124 77.7641 66.2027 77.7774C66.1931 77.7906 66.1842 77.7996 66.1785 77.8046L65.52 77.052L64.8615 76.2994C64.4231 76.683 64.232 77.2011 64.232 77.736H65.232ZM65.52 77.052L66.1785 77.8046C66.1876 77.7966 66.1929 77.7933 66.194 77.7925C66.195 77.7919 66.1931 77.7932 66.1884 77.795C66.1838 77.7968 66.1786 77.7983 66.1737 77.7992C66.1688 77.8001 66.1666 77.8 66.168 77.8V76.8V75.8C65.6697 75.8 65.2233 75.9828 64.8615 76.2994L65.52 77.052ZM66.168 76.8V77.8H72.036V76.8V75.8H66.168V76.8ZM72.036 76.8V77.8C72.0445 77.8 72.0239 77.8009 71.9899 77.7858C71.9549 77.7703 71.9353 77.7509 71.9314 77.7465L72.684 77.088L73.4366 76.4295C73.0713 76.012 72.5769 75.8 72.036 75.8V76.8ZM72.684 77.088L72.0255 77.8406C72.0211 77.8367 72.0017 77.8171 71.9862 77.7821C71.9711 77.7481 71.972 77.7275 71.972 77.736H72.972H73.972C73.972 77.1951 73.76 76.7007 73.3425 76.3354L72.684 77.088ZM72.972 77.736H71.972V95.16H72.972H73.972V77.736H72.972ZM72.972 95.16V96.16H80.316V95.16V94.16H72.972V95.16ZM80.316 95.16H81.316V77.736H80.316H79.316V95.16H80.316ZM80.316 77.736H81.316C81.316 77.7109 81.3197 77.716 81.311 77.7384C81.3069 77.7491 81.3011 77.7606 81.2938 77.7717C81.2866 77.7827 81.2797 77.7905 81.2751 77.7951L80.568 77.088L79.8609 76.3809C79.4837 76.7581 79.316 77.2391 79.316 77.736H80.316ZM80.568 77.088L81.2751 77.7951C81.2825 77.7877 81.2857 77.7857 81.2843 77.7867C81.2827 77.7878 81.2781 77.7907 81.2711 77.7936C81.2639 77.7966 81.2573 77.7985 81.2523 77.7995C81.2474 77.8004 81.2469 77.8 81.252 77.8V76.8V75.8C80.7144 75.8 80.2344 76.0073 79.8609 76.3809L80.568 77.088ZM81.252 76.8V77.8H87.12V76.8V75.8H81.252V76.8ZM87.12 76.8V77.8C87.1285 77.8 87.1079 77.8009 87.0739 77.7858C87.0389 77.7703 87.0193 77.7509 87.0154 77.7465L87.768 77.088L88.5206 76.4295C88.1553 76.012 87.6609 75.8 87.12 75.8V76.8ZM87.768 77.088L87.1095 77.8406C87.1051 77.8367 87.0857 77.8171 87.0702 77.7821C87.0551 77.7481 87.056 77.7275 87.056 77.736H88.056H89.056C89.056 77.1951 88.844 76.7007 88.4265 76.3354L87.768 77.088ZM88.056 77.736H87.056V95.16H88.056H89.056V77.736H88.056ZM88.056 95.16V96.16H89.712V95.16V94.16H88.056V95.16ZM89.712 95.16V96.16C89.7205 96.16 89.6999 96.1609 89.6659 96.1458C89.6309 96.1303 89.6113 96.1109 89.6074 96.1065L90.36 95.448L91.1126 94.7895C90.7473 94.372 90.2529 94.16 89.712 94.16V95.16ZM90.36 95.448L89.7015 96.2006C89.6971 96.1967 89.6777 96.1771 89.6622 96.1421C89.6471 96.1081 89.648 96.0875 89.648 96.096H90.648H91.648C91.648 95.5551 91.436 95.0607 91.0185 94.6954L90.36 95.448ZM90.648 96.096H89.648V106.104H90.648H91.648V96.096H90.648ZM90.648 106.104H89.648C89.648 106.112 89.6471 106.092 89.6622 106.058C89.6777 106.023 89.6971 106.003 89.7015 105.999L90.36 106.752L91.0185 107.505C91.436 107.139 91.648 106.645 91.648 106.104H90.648ZM90.36 106.752L89.6074 106.093C89.6113 106.089 89.6309 106.07 89.6659 106.054C89.6999 106.039 89.7205 106.04 89.712 106.04V107.04V108.04C90.2529 108.04 90.7473 107.828 91.1126 107.411L90.36 106.752ZM89.712 107.04V106.04H83.844V107.04V108.04H89.712V107.04ZM92.1178 101.784L91.3586 102.435L91.4086 102.493L91.467 102.543L92.1178 101.784ZM91.9738 100.956L92.8059 101.511L92.8744 101.408L92.9158 101.292L91.9738 100.956ZM100.182 77.916L101.124 78.2516L101.137 78.2158L101.147 78.1791L100.182 77.916ZM100.65 77.16L99.9771 76.4201L99.9595 76.4361L99.9427 76.4529L100.65 77.16ZM109.326 77.16L110.033 76.4529L110.033 76.4529L109.326 77.16ZM109.794 77.916L108.829 78.1791L108.839 78.2165L108.852 78.2529L109.794 77.916ZM118.038 100.956L118.986 100.64L118.983 100.629L118.979 100.619L118.038 100.956ZM117.822 101.784L118.529 102.491L118.529 102.491L117.822 101.784ZM110.442 101.172L109.504 101.518L109.513 101.542L109.523 101.566L110.442 101.172ZM109.326 98.148L110.264 97.8018L110.023 97.148H109.326V98.148ZM100.65 98.148V97.148H99.9529L99.7117 97.8018L100.65 98.148ZM99.5338 101.172L100.453 101.566L100.463 101.542L100.472 101.518L99.5338 101.172ZM99.1378 101.712L98.4307 101.005L98.4072 101.028L98.3852 101.053L99.1378 101.712ZM102.306 92.064L101.356 91.7516L100.924 93.064H102.306V92.064ZM107.67 92.064V93.064H109.057L108.618 91.7478L107.67 92.064ZM104.97 83.964L105.918 83.6478L104.963 80.7826L104.02 83.6516L104.97 83.964ZM92.6938 102V101C92.6993 101 92.7168 101.001 92.7389 101.01C92.7608 101.018 92.7709 101.027 92.7686 101.025L92.1178 101.784L91.467 102.543C91.8114 102.838 92.2328 103 92.6938 103V102ZM92.1178 101.784L92.8771 101.133C92.8751 101.131 92.884 101.141 92.8921 101.163C92.9005 101.185 92.9018 101.203 92.9018 101.208H91.9018H90.9018C90.9018 101.669 91.0634 102.09 91.3586 102.435L92.1178 101.784ZM91.9018 101.208H92.9018C92.9018 101.287 92.8792 101.401 92.8059 101.511L91.9738 100.956L91.1418 100.401C90.9724 100.655 90.9018 100.937 90.9018 101.208H91.9018ZM91.9738 100.956L92.9158 101.292L101.124 78.2516L100.182 77.916L99.2398 77.5804L91.0318 100.62L91.9738 100.956ZM100.182 77.916L101.147 78.1791C101.163 78.1189 101.211 78.0133 101.357 77.8671L100.65 77.16L99.9427 76.4529C99.6089 76.7867 99.3446 77.1851 99.217 77.6529L100.182 77.916ZM100.65 77.16L101.322 77.8999C101.365 77.861 101.455 77.8 101.694 77.8V76.8V75.8C101.068 75.8 100.462 75.979 99.9771 76.4201L100.65 77.16ZM101.694 76.8V77.8H108.282V76.8V75.8H101.694V76.8ZM108.282 76.8V77.8C108.424 77.8 108.511 77.819 108.559 77.8354C108.602 77.8502 108.615 77.8633 108.619 77.8671L109.326 77.16L110.033 76.4529C109.548 75.968 108.909 75.8 108.282 75.8V76.8ZM109.326 77.16L108.619 77.8671C108.765 78.0133 108.813 78.1189 108.829 78.1791L109.794 77.916L110.759 77.6529C110.631 77.1851 110.367 76.7867 110.033 76.4529L109.326 77.16ZM109.794 77.916L108.852 78.2529L117.096 101.293L118.038 100.956L118.979 100.619L110.735 77.5791L109.794 77.916ZM118.038 100.956L117.089 101.272C117.072 101.219 117.074 101.192 117.074 101.208H118.074H119.074C119.074 101.032 119.052 100.837 118.986 100.64L118.038 100.956ZM118.074 101.208H117.074C117.074 101.182 117.08 101.147 117.095 101.113C117.109 101.081 117.122 101.069 117.115 101.077L117.822 101.784L118.529 102.491C118.864 102.156 119.074 101.717 119.074 101.208H118.074ZM117.822 101.784L117.115 101.077C117.134 101.058 117.165 101.034 117.207 101.018C117.248 101.001 117.277 101 117.282 101V102V103C117.745 103 118.185 102.835 118.529 102.491L117.822 101.784ZM117.282 102V101H111.738V102V103H117.282V102ZM111.738 102V101C111.608 101 111.539 100.984 111.512 100.976C111.489 100.968 111.511 100.971 111.545 101.005L110.838 101.712L110.131 102.419C110.586 102.875 111.196 103 111.738 103V102ZM110.838 101.712L111.545 101.005C111.478 100.937 111.431 100.883 111.401 100.842C111.386 100.821 111.376 100.806 111.37 100.795C111.363 100.783 111.361 100.778 111.361 100.778L110.442 101.172L109.523 101.566C109.663 101.893 109.888 102.177 110.131 102.419L110.838 101.712ZM110.442 101.172L111.38 100.826L110.264 97.8018L109.326 98.148L108.388 98.4942L109.504 101.518L110.442 101.172ZM109.326 98.148V97.148H100.65V98.148V99.148H109.326V98.148ZM100.65 98.148L99.7117 97.8018L98.5957 100.826L99.5338 101.172L100.472 101.518L101.588 98.4942L100.65 98.148ZM99.5338 101.172L98.6147 100.778C98.6147 100.778 98.6124 100.783 98.6059 100.795C98.5994 100.806 98.5893 100.821 98.5744 100.842C98.5441 100.883 98.4981 100.937 98.4307 101.005L99.1378 101.712L99.8449 102.419C100.087 102.177 100.313 101.893 100.453 101.566L99.5338 101.172ZM99.1378 101.712L98.3852 101.053C98.4462 100.984 98.4993 100.97 98.482 100.976C98.4595 100.983 98.3859 101 98.2378 101V102V103C98.7665 103 99.435 102.891 99.8904 102.371L99.1378 101.712ZM98.2378 102V101H92.6938V102V103H98.2378V102ZM102.306 92.064V93.064H107.67V92.064V91.064H102.306V92.064ZM107.67 92.064L108.618 91.7478L105.918 83.6478L104.97 83.964L104.021 84.2802L106.721 92.3802L107.67 92.064ZM104.97 83.964L104.02 83.6516L101.356 91.7516L102.306 92.064L103.256 92.3764L105.92 84.2764L104.97 83.964ZM120.75 101.748L120.043 102.455L120.067 102.479L120.092 102.501L120.75 101.748ZM120.75 77.088L121.409 77.8406L121.434 77.8187L121.458 77.7951L120.75 77.088ZM137.346 77.736L136.97 78.6625L136.975 78.6645L137.346 77.736ZM140.982 90.12L141.799 90.6967L141.805 90.6892L140.982 90.12ZM137.346 92.82L137 91.8819L136.995 91.8837L137.346 92.82ZM128.49 93.684V92.684H127.49V93.684H128.49ZM128.202 101.748L127.495 101.041L127.495 101.041L128.202 101.748ZM128.346 87.888H127.346V88.888H128.346V87.888ZM133.494 87.276L134.142 88.0379L134.145 88.0353L133.494 87.276ZM133.674 83.46L134.495 82.8889L134.495 82.8889L133.674 83.46ZM128.346 82.632V81.632H127.346V82.632H128.346ZM121.398 102V101C121.397 101 121.399 101 121.404 101.001C121.409 101.002 121.414 101.003 121.419 101.005C121.424 101.007 121.425 101.008 121.424 101.007C121.423 101.007 121.418 101.003 121.409 100.995L120.75 101.748L120.092 102.501C120.454 102.817 120.9 103 121.398 103V102ZM120.75 101.748L121.458 101.041C121.45 101.034 121.448 101.03 121.449 101.032C121.45 101.033 121.453 101.038 121.456 101.045C121.459 101.052 121.461 101.059 121.462 101.064C121.463 101.069 121.462 101.069 121.462 101.064H120.462H119.462C119.462 101.602 119.67 102.082 120.043 102.455L120.75 101.748ZM120.462 101.064H121.462V77.736H120.462H119.462V101.064H120.462ZM120.462 77.736H121.462C121.462 77.7275 121.463 77.7481 121.448 77.7821C121.433 77.8171 121.413 77.8367 121.409 77.8406L120.75 77.088L120.092 76.3354C119.674 76.7007 119.462 77.1951 119.462 77.736H120.462ZM120.75 77.088L121.458 77.7951C121.48 77.7731 121.482 77.7771 121.463 77.7858C121.453 77.7899 121.442 77.7939 121.429 77.7965C121.416 77.7992 121.406 77.8 121.398 77.8V76.8V75.8C120.858 75.8 120.396 76.0282 120.043 76.3809L120.75 77.088ZM121.398 76.8V77.8H131.91V76.8V75.8H121.398V76.8ZM131.91 76.8V77.8C133.902 77.8 135.58 78.0978 136.97 78.6625L137.346 77.736L137.723 76.8095C136.041 76.1262 134.095 75.8 131.91 75.8V76.8ZM137.346 77.736L136.975 78.6645C138.368 79.2216 139.414 80.0501 140.155 81.1419L140.982 80.58L141.81 80.0181C140.823 78.5659 139.445 77.4984 137.718 76.8075L137.346 77.736ZM140.982 80.58L140.155 81.1419C140.882 82.2111 141.278 83.5984 141.278 85.368H142.278H143.278C143.278 83.2976 142.811 81.4929 141.81 80.0181L140.982 80.58ZM142.278 85.368H141.278C141.278 87.1386 140.881 88.5095 140.16 89.5508L140.982 90.12L141.805 90.6892C142.812 89.2345 143.278 87.4374 143.278 85.368H142.278ZM140.982 90.12L140.166 89.5433C139.431 90.584 138.392 91.368 137 91.8819L137.346 92.82L137.693 93.7581C139.421 93.12 140.806 92.104 141.799 90.6967L140.982 90.12ZM137.346 92.82L136.995 91.8837C135.598 92.4078 133.91 92.684 131.91 92.684V93.684V94.684C134.087 94.684 136.023 94.3842 137.698 93.7563L137.346 92.82ZM131.91 93.684V92.684H128.49V93.684V94.684H131.91V93.684ZM128.49 93.684H127.49V101.064H128.49H129.49V93.684H128.49ZM128.49 101.064H127.49C127.49 101.069 127.49 101.069 127.491 101.064C127.492 101.059 127.494 101.052 127.497 101.045C127.5 101.038 127.503 101.033 127.504 101.032C127.505 101.03 127.503 101.034 127.495 101.041L128.202 101.748L128.91 102.455C129.283 102.082 129.49 101.602 129.49 101.064H128.49ZM128.202 101.748L127.495 101.041C127.5 101.036 127.508 101.029 127.519 101.022C127.53 101.015 127.541 101.009 127.552 101.005C127.575 100.996 127.58 101 127.554 101V102V103C128.051 103 128.532 102.832 128.91 102.455L128.202 101.748ZM127.554 102V101H121.398V102V103H127.554V102ZM128.346 87.888V88.888H131.73V87.888V86.888H128.346V87.888ZM131.73 87.888V88.888C132.637 88.888 133.462 88.616 134.142 88.0379L133.494 87.276L132.847 86.5141C132.567 86.752 132.216 86.888 131.73 86.888V87.888ZM133.494 87.276L134.145 88.0353C134.939 87.3545 135.25 86.3716 135.25 85.296H134.25H133.25C133.25 85.9964 133.057 86.3335 132.844 86.5167L133.494 87.276ZM134.25 85.296H135.25C135.25 84.4197 134.996 83.6084 134.495 82.8889L133.674 83.46L132.854 84.0311C133.121 84.4156 133.25 84.8283 133.25 85.296H134.25ZM133.674 83.46L134.495 82.8889C133.862 81.9783 132.842 81.632 131.73 81.632V82.632V83.632C132.443 83.632 132.719 83.8377 132.854 84.0311L133.674 83.46ZM131.73 82.632V81.632H128.346V82.632V83.632H131.73V82.632ZM128.346 82.632H127.346V87.888H128.346H129.346V82.632H128.346ZM145.641 101.748L144.934 102.455L144.958 102.479L144.983 102.501L145.641 101.748ZM145.641 77.088L146.3 77.8406L146.325 77.8187L146.348 77.7951L145.641 77.088ZM152.805 77.088L152.053 77.7465L152.096 77.7967L152.147 77.8406L152.805 77.088ZM153.093 85.044H152.093V86.044H153.093V85.044ZM163.821 87.096L164.421 86.296L164.421 86.296L163.821 87.096ZM165.333 98.004L166.179 98.5368L166.179 98.5368L165.333 98.004ZM161.769 100.992L162.17 101.908L162.177 101.905L161.769 100.992ZM153.093 96.168H152.093V97.168H153.093V96.168ZM157.881 95.376L157.09 94.7646L157.081 94.7761L157.072 94.7878L157.881 95.376ZM157.809 91.524L157.102 92.2311L157.122 92.2507L157.142 92.2692L157.809 91.524ZM153.093 90.876V89.876H152.093V90.876H153.093ZM146.289 102V101C146.288 101 146.29 101 146.295 101.001C146.3 101.002 146.305 101.003 146.31 101.005C146.314 101.007 146.316 101.008 146.315 101.007C146.314 101.007 146.309 101.003 146.3 100.995L145.641 101.748L144.983 102.501C145.344 102.817 145.791 103 146.289 103V102ZM145.641 101.748L146.348 101.041C146.341 101.034 146.339 101.03 146.34 101.032C146.341 101.033 146.344 101.038 146.347 101.045C146.35 101.052 146.352 101.059 146.353 101.064C146.354 101.069 146.353 101.069 146.353 101.064H145.353H144.353C144.353 101.602 144.56 102.082 144.934 102.455L145.641 101.748ZM145.353 101.064H146.353V77.736H145.353H144.353V101.064H145.353ZM145.353 77.736H146.353C146.353 77.7275 146.354 77.7481 146.339 77.7821C146.323 77.8171 146.304 77.8367 146.3 77.8406L145.641 77.088L144.983 76.3354C144.565 76.7007 144.353 77.1951 144.353 77.736H145.353ZM145.641 77.088L146.348 77.7951C146.37 77.7731 146.373 77.7771 146.353 77.7858C146.344 77.7899 146.332 77.7939 146.32 77.7965C146.307 77.7992 146.296 77.8 146.289 77.8V76.8V75.8C145.748 75.8 145.287 76.0282 144.934 76.3809L145.641 77.088ZM146.289 76.8V77.8H152.157V76.8V75.8H146.289V76.8ZM152.157 76.8V77.8C152.166 77.8 152.145 77.8009 152.111 77.7858C152.076 77.7703 152.056 77.7509 152.053 77.7465L152.805 77.088L153.558 76.4295C153.192 76.012 152.698 75.8 152.157 75.8V76.8ZM152.805 77.088L152.147 77.8406C152.142 77.8367 152.123 77.8171 152.107 77.7821C152.092 77.7481 152.093 77.7275 152.093 77.736H153.093H154.093C154.093 77.1951 153.881 76.7007 153.464 76.3354L152.805 77.088ZM153.093 77.736H152.093V85.044H153.093H154.093V77.736H153.093ZM153.093 85.044V86.044H156.189V85.044V84.044H153.093V85.044ZM156.189 85.044V86.044C159.327 86.044 161.631 86.7032 163.221 87.896L163.821 87.096L164.421 86.296C162.363 84.7528 159.579 84.044 156.189 84.044V85.044ZM163.821 87.096L163.221 87.896C164.732 89.0295 165.557 90.7941 165.557 93.396H166.557H167.557C167.557 90.3339 166.558 87.8985 164.421 86.296L163.821 87.096ZM166.557 93.396H165.557C165.557 95.0141 165.187 96.3589 164.487 97.4712L165.333 98.004L166.179 98.5368C167.111 97.0571 167.557 95.3299 167.557 93.396H166.557ZM165.333 98.004L164.487 97.4712C163.788 98.5808 162.763 99.4537 161.362 100.079L161.769 100.992L162.177 101.905C163.896 101.138 165.246 100.019 166.179 98.5368L165.333 98.004ZM161.769 100.992L161.368 100.076C159.991 100.679 158.275 101 156.189 101V102V103C158.471 103 160.475 102.649 162.17 101.908L161.769 100.992ZM156.189 102V101H146.289V102V103H156.189V102ZM153.093 96.168V97.168H156.117V96.168V95.168H153.093V96.168ZM156.117 96.168V97.168C157.152 97.168 158.077 96.8073 158.69 95.9642L157.881 95.376L157.072 94.7878C156.918 95.0007 156.666 95.168 156.117 95.168V96.168ZM157.881 95.376L158.672 95.9874C159.236 95.2586 159.493 94.3864 159.493 93.432H158.493H157.493C157.493 94.0136 157.343 94.4374 157.09 94.7646L157.881 95.376ZM158.493 93.432H159.493C159.493 92.4042 159.22 91.4443 158.476 90.7788L157.809 91.524L157.142 92.2692C157.31 92.4197 157.493 92.7318 157.493 93.432H158.493ZM157.809 91.524L158.516 90.8169C157.87 90.1708 157.038 89.876 156.117 89.876V90.876V91.876C156.588 91.876 156.884 92.0132 157.102 92.2311L157.809 91.524ZM156.117 90.876V89.876H153.093V90.876V91.876H156.117V90.876ZM153.093 90.876H152.093V96.168H153.093H154.093V90.876H153.093Z" fill="url(#paint4_linear_487_4753)" mask="url(#path-8-outside-1_487_4753)"/>
<mask id="path-10-outside-2_487_4753" maskUnits="userSpaceOnUse" x="62.5" y="118" width="106" height="29" fill="black">
<rect fill="white" x="62.5" y="118" width="106" height="29"/>
<path d="M64.8965 145C64.6565 145 64.4405 144.916 64.2485 144.748C64.0565 144.556 63.9605 144.328 63.9605 144.064V120.736C63.9605 120.472 64.0565 120.256 64.2485 120.088C64.4405 119.896 64.6565 119.8 64.8965 119.8H81.1325C81.3965 119.8 81.6125 119.896 81.7805 120.088C81.9725 120.256 82.0685 120.472 82.0685 120.736V125.272C82.0685 125.536 81.9725 125.764 81.7805 125.956C81.6125 126.124 81.3965 126.208 81.1325 126.208H71.7005V144.064C71.7005 144.328 71.6045 144.556 71.4125 144.748C71.2445 144.916 71.0285 145 70.7645 145H64.8965ZM95.4692 145.36C93.1652 145.36 91.1612 145 89.4572 144.28C87.7772 143.56 86.4452 142.48 85.4612 141.04C84.5012 139.576 83.9852 137.764 83.9132 135.604C83.8892 134.596 83.8772 133.564 83.8772 132.508C83.8772 131.428 83.8892 130.36 83.9132 129.304C83.9852 127.168 84.5012 125.368 85.4612 123.904C86.4452 122.44 87.7892 121.336 89.4932 120.592C91.1972 119.824 93.1892 119.44 95.4692 119.44C97.7252 119.44 99.7052 119.824 101.409 120.592C103.113 121.336 104.457 122.44 105.441 123.904C106.425 125.368 106.941 127.168 106.989 129.304C107.037 130.36 107.061 131.428 107.061 132.508C107.061 133.564 107.037 134.596 106.989 135.604C106.917 137.764 106.389 139.576 105.405 141.04C104.445 142.48 103.113 143.56 101.409 144.28C99.7292 145 97.7492 145.36 95.4692 145.36ZM95.4692 139.24C96.4772 139.24 97.3052 138.94 97.9532 138.34C98.6012 137.716 98.9372 136.732 98.9612 135.388C99.0092 134.356 99.0332 133.36 99.0332 132.4C99.0332 131.416 99.0092 130.42 98.9612 129.412C98.9372 128.524 98.7692 127.792 98.4572 127.216C98.1692 126.64 97.7612 126.22 97.2332 125.956C96.7292 125.692 96.1412 125.56 95.4692 125.56C94.7972 125.56 94.1972 125.692 93.6692 125.956C93.1412 126.22 92.7212 126.64 92.4092 127.216C92.1212 127.792 91.9652 128.524 91.9412 129.412C91.9172 130.42 91.9052 131.416 91.9052 132.4C91.9052 133.36 91.9172 134.356 91.9412 135.388C91.9892 136.732 92.3252 137.716 92.9492 138.34C93.5972 138.94 94.4372 139.24 95.4692 139.24ZM111.689 145C111.449 145 111.233 144.916 111.041 144.748C110.849 144.556 110.753 144.328 110.753 144.064V120.736C110.753 120.472 110.849 120.256 111.041 120.088C111.233 119.896 111.449 119.8 111.689 119.8H122.201C124.289 119.8 126.101 120.112 127.637 120.736C129.197 121.36 130.409 122.308 131.273 123.58C132.137 124.852 132.569 126.448 132.569 128.368C132.569 130.288 132.137 131.872 131.273 133.12C130.409 134.344 129.197 135.244 127.637 135.82C126.101 136.396 124.289 136.684 122.201 136.684H118.781V144.064C118.781 144.328 118.685 144.556 118.493 144.748C118.325 144.916 118.109 145 117.845 145H111.689ZM118.637 130.888H122.021C122.717 130.888 123.305 130.684 123.785 130.276C124.289 129.844 124.541 129.184 124.541 128.296C124.541 127.624 124.349 127.012 123.965 126.46C123.581 125.908 122.933 125.632 122.021 125.632H118.637V130.888ZM136.58 145C136.34 145 136.124 144.916 135.932 144.748C135.74 144.556 135.644 144.328 135.644 144.064V120.736C135.644 120.472 135.74 120.256 135.932 120.088C136.124 119.896 136.34 119.8 136.58 119.8H142.448C142.712 119.8 142.928 119.896 143.096 120.088C143.288 120.256 143.384 120.472 143.384 120.736V128.044H146.264C149.552 128.044 152.096 128.728 153.896 130.096C155.72 131.464 156.632 133.564 156.632 136.396C156.632 138.172 156.224 139.708 155.408 141.004C154.592 142.3 153.416 143.296 151.88 143.992C150.344 144.664 148.472 145 146.264 145H136.58ZM143.384 139.168H146.192C146.984 139.168 147.584 138.904 147.992 138.376C148.4 137.848 148.604 137.2 148.604 136.432C148.604 135.568 148.376 134.932 147.92 134.524C147.488 134.092 146.912 133.876 146.192 133.876H143.384V139.168ZM159.98 145C159.74 145 159.524 144.916 159.332 144.748C159.14 144.556 159.044 144.328 159.044 144.064V120.736C159.044 120.472 159.14 120.256 159.332 120.088C159.524 119.896 159.74 119.8 159.98 119.8H166.1C166.364 119.8 166.58 119.896 166.748 120.088C166.94 120.256 167.036 120.472 167.036 120.736V144.064C167.036 144.328 166.94 144.556 166.748 144.748C166.58 144.916 166.364 145 166.1 145H159.98Z"/>
</mask>
<path d="M64.8965 145C64.6565 145 64.4405 144.916 64.2485 144.748C64.0565 144.556 63.9605 144.328 63.9605 144.064V120.736C63.9605 120.472 64.0565 120.256 64.2485 120.088C64.4405 119.896 64.6565 119.8 64.8965 119.8H81.1325C81.3965 119.8 81.6125 119.896 81.7805 120.088C81.9725 120.256 82.0685 120.472 82.0685 120.736V125.272C82.0685 125.536 81.9725 125.764 81.7805 125.956C81.6125 126.124 81.3965 126.208 81.1325 126.208H71.7005V144.064C71.7005 144.328 71.6045 144.556 71.4125 144.748C71.2445 144.916 71.0285 145 70.7645 145H64.8965ZM95.4692 145.36C93.1652 145.36 91.1612 145 89.4572 144.28C87.7772 143.56 86.4452 142.48 85.4612 141.04C84.5012 139.576 83.9852 137.764 83.9132 135.604C83.8892 134.596 83.8772 133.564 83.8772 132.508C83.8772 131.428 83.8892 130.36 83.9132 129.304C83.9852 127.168 84.5012 125.368 85.4612 123.904C86.4452 122.44 87.7892 121.336 89.4932 120.592C91.1972 119.824 93.1892 119.44 95.4692 119.44C97.7252 119.44 99.7052 119.824 101.409 120.592C103.113 121.336 104.457 122.44 105.441 123.904C106.425 125.368 106.941 127.168 106.989 129.304C107.037 130.36 107.061 131.428 107.061 132.508C107.061 133.564 107.037 134.596 106.989 135.604C106.917 137.764 106.389 139.576 105.405 141.04C104.445 142.48 103.113 143.56 101.409 144.28C99.7292 145 97.7492 145.36 95.4692 145.36ZM95.4692 139.24C96.4772 139.24 97.3052 138.94 97.9532 138.34C98.6012 137.716 98.9372 136.732 98.9612 135.388C99.0092 134.356 99.0332 133.36 99.0332 132.4C99.0332 131.416 99.0092 130.42 98.9612 129.412C98.9372 128.524 98.7692 127.792 98.4572 127.216C98.1692 126.64 97.7612 126.22 97.2332 125.956C96.7292 125.692 96.1412 125.56 95.4692 125.56C94.7972 125.56 94.1972 125.692 93.6692 125.956C93.1412 126.22 92.7212 126.64 92.4092 127.216C92.1212 127.792 91.9652 128.524 91.9412 129.412C91.9172 130.42 91.9052 131.416 91.9052 132.4C91.9052 133.36 91.9172 134.356 91.9412 135.388C91.9892 136.732 92.3252 137.716 92.9492 138.34C93.5972 138.94 94.4372 139.24 95.4692 139.24ZM111.689 145C111.449 145 111.233 144.916 111.041 144.748C110.849 144.556 110.753 144.328 110.753 144.064V120.736C110.753 120.472 110.849 120.256 111.041 120.088C111.233 119.896 111.449 119.8 111.689 119.8H122.201C124.289 119.8 126.101 120.112 127.637 120.736C129.197 121.36 130.409 122.308 131.273 123.58C132.137 124.852 132.569 126.448 132.569 128.368C132.569 130.288 132.137 131.872 131.273 133.12C130.409 134.344 129.197 135.244 127.637 135.82C126.101 136.396 124.289 136.684 122.201 136.684H118.781V144.064C118.781 144.328 118.685 144.556 118.493 144.748C118.325 144.916 118.109 145 117.845 145H111.689ZM118.637 130.888H122.021C122.717 130.888 123.305 130.684 123.785 130.276C124.289 129.844 124.541 129.184 124.541 128.296C124.541 127.624 124.349 127.012 123.965 126.46C123.581 125.908 122.933 125.632 122.021 125.632H118.637V130.888ZM136.58 145C136.34 145 136.124 144.916 135.932 144.748C135.74 144.556 135.644 144.328 135.644 144.064V120.736C135.644 120.472 135.74 120.256 135.932 120.088C136.124 119.896 136.34 119.8 136.58 119.8H142.448C142.712 119.8 142.928 119.896 143.096 120.088C143.288 120.256 143.384 120.472 143.384 120.736V128.044H146.264C149.552 128.044 152.096 128.728 153.896 130.096C155.72 131.464 156.632 133.564 156.632 136.396C156.632 138.172 156.224 139.708 155.408 141.004C154.592 142.3 153.416 143.296 151.88 143.992C150.344 144.664 148.472 145 146.264 145H136.58ZM143.384 139.168H146.192C146.984 139.168 147.584 138.904 147.992 138.376C148.4 137.848 148.604 137.2 148.604 136.432C148.604 135.568 148.376 134.932 147.92 134.524C147.488 134.092 146.912 133.876 146.192 133.876H143.384V139.168ZM159.98 145C159.74 145 159.524 144.916 159.332 144.748C159.14 144.556 159.044 144.328 159.044 144.064V120.736C159.044 120.472 159.14 120.256 159.332 120.088C159.524 119.896 159.74 119.8 159.98 119.8H166.1C166.364 119.8 166.58 119.896 166.748 120.088C166.94 120.256 167.036 120.472 167.036 120.736V144.064C167.036 144.328 166.94 144.556 166.748 144.748C166.58 144.916 166.364 145 166.1 145H159.98Z" fill="url(#paint5_linear_487_4753)"/>
<path d="M64.2485 144.748L63.5414 145.455L63.565 145.479L63.59 145.501L64.2485 144.748ZM64.2485 120.088L64.907 120.841L64.9321 120.819L64.9556 120.795L64.2485 120.088ZM81.7805 120.088L81.0279 120.747L81.0718 120.797L81.122 120.841L81.7805 120.088ZM71.7005 126.208V125.208H70.7005V126.208H71.7005ZM71.4125 144.748L72.1196 145.455L72.1196 145.455L71.4125 144.748ZM64.8965 145V144C64.8951 144 64.8974 144 64.9022 144.001C64.9071 144.002 64.9123 144.003 64.917 144.005C64.9216 144.007 64.9235 144.008 64.9225 144.007C64.9214 144.007 64.9161 144.003 64.907 143.995L64.2485 144.748L63.59 145.501C63.9518 145.817 64.3982 146 64.8965 146V145ZM64.2485 144.748L64.9556 144.041C64.9482 144.034 64.9463 144.03 64.9472 144.032C64.9483 144.033 64.9512 144.038 64.9542 144.045C64.9571 144.052 64.959 144.059 64.96 144.064C64.961 144.069 64.9605 144.069 64.9605 144.064H63.9605H62.9605C62.9605 144.602 63.1679 145.082 63.5414 145.455L64.2485 144.748ZM63.9605 144.064H64.9605V120.736H63.9605H62.9605V144.064H63.9605ZM63.9605 120.736H64.9605C64.9605 120.728 64.9615 120.748 64.9463 120.782C64.9308 120.817 64.9115 120.837 64.907 120.841L64.2485 120.088L63.59 119.335C63.1725 119.701 62.9605 120.195 62.9605 120.736H63.9605ZM64.2485 120.088L64.9556 120.795C64.9776 120.773 64.9802 120.777 64.9607 120.786C64.9513 120.79 64.9398 120.794 64.927 120.797C64.9143 120.799 64.9037 120.8 64.8965 120.8V119.8V118.8C64.3556 118.8 63.8941 119.028 63.5414 119.381L64.2485 120.088ZM64.8965 119.8V120.8H81.1325V119.8V118.8H64.8965V119.8ZM81.1325 119.8V120.8C81.141 120.8 81.1204 120.801 81.0864 120.786C81.0515 120.77 81.0318 120.751 81.0279 120.747L81.7805 120.088L82.5331 119.429C82.1678 119.012 81.6734 118.8 81.1325 118.8V119.8ZM81.7805 120.088L81.122 120.841C81.1176 120.837 81.0982 120.817 81.0827 120.782C81.0676 120.748 81.0685 120.728 81.0685 120.736H82.0685H83.0685C83.0685 120.195 82.8565 119.701 82.439 119.335L81.7805 120.088ZM82.0685 120.736H81.0685V125.272H82.0685H83.0685V120.736H82.0685ZM82.0685 125.272H81.0685C81.0685 125.277 81.0681 125.277 81.069 125.272C81.07 125.267 81.0719 125.26 81.0749 125.253C81.0779 125.246 81.0807 125.241 81.0818 125.24C81.0828 125.238 81.0808 125.242 81.0734 125.249L81.7805 125.956L82.4876 126.663C82.8612 126.29 83.0685 125.81 83.0685 125.272H82.0685ZM81.7805 125.956L81.0734 125.249C81.078 125.244 81.0858 125.237 81.0969 125.23C81.1079 125.223 81.1194 125.217 81.1301 125.213C81.1525 125.204 81.1576 125.208 81.1325 125.208V126.208V127.208C81.6294 127.208 82.1104 127.04 82.4876 126.663L81.7805 125.956ZM81.1325 126.208V125.208H71.7005V126.208V127.208H81.1325V126.208ZM71.7005 126.208H70.7005V144.064H71.7005H72.7005V126.208H71.7005ZM71.7005 144.064H70.7005C70.7005 144.069 70.7001 144.069 70.701 144.064C70.702 144.059 70.7039 144.052 70.7069 144.045C70.7099 144.038 70.7127 144.033 70.7138 144.032C70.7148 144.03 70.7128 144.034 70.7054 144.041L71.4125 144.748L72.1196 145.455C72.4932 145.082 72.7005 144.602 72.7005 144.064H71.7005ZM71.4125 144.748L70.7054 144.041C70.71 144.036 70.7178 144.029 70.7289 144.022C70.7399 144.015 70.7514 144.009 70.7621 144.005C70.7845 143.996 70.7896 144 70.7645 144V145V146C71.2614 146 71.7424 145.832 72.1196 145.455L71.4125 144.748ZM70.7645 145V144H64.8965V145V146H70.7645V145ZM89.4572 144.28L89.0633 145.199L89.068 145.201L89.4572 144.28ZM85.4612 141.04L84.625 141.588L84.6302 141.596L84.6356 141.604L85.4612 141.04ZM83.9132 135.604L82.9135 135.628L82.9138 135.637L83.9132 135.604ZM83.9132 129.304L82.9137 129.27L82.9135 129.281L83.9132 129.304ZM85.4612 123.904L84.6312 123.346L84.625 123.356L85.4612 123.904ZM89.4932 120.592L89.8934 121.509L89.9041 121.504L89.4932 120.592ZM101.409 120.592L100.998 121.504L101.009 121.508L101.409 120.592ZM106.989 129.304L105.989 129.326L105.99 129.338L105.99 129.349L106.989 129.304ZM106.989 135.604L105.99 135.556L105.99 135.564L105.99 135.571L106.989 135.604ZM105.405 141.04L104.575 140.482L104.573 140.485L105.405 141.04ZM101.409 144.28L101.02 143.359L101.015 143.361L101.409 144.28ZM97.9532 138.34L98.6326 139.074L98.6398 139.067L98.6469 139.06L97.9532 138.34ZM98.9612 135.388L97.9623 135.342L97.9617 135.356L97.9614 135.37L98.9612 135.388ZM98.9612 129.412L97.9616 129.439L97.9619 129.449L97.9624 129.46L98.9612 129.412ZM98.4572 127.216L97.5628 127.663L97.5701 127.678L97.5779 127.692L98.4572 127.216ZM97.2332 125.956L96.7692 126.842L96.7776 126.846L96.786 126.85L97.2332 125.956ZM93.6692 125.956L93.222 125.062L93.222 125.062L93.6692 125.956ZM92.4092 127.216L91.5299 126.74L91.5221 126.754L91.5148 126.769L92.4092 127.216ZM91.9412 129.412L90.9416 129.385L90.9415 129.388L91.9412 129.412ZM91.9412 135.388L90.9414 135.411L90.9419 135.424L91.9412 135.388ZM92.9492 138.34L92.2421 139.047L92.2557 139.061L92.2698 139.074L92.9492 138.34ZM95.4692 145.36V144.36C93.2672 144.36 91.4011 144.016 89.8465 143.359L89.4572 144.28L89.068 145.201C90.9214 145.984 93.0633 146.36 95.4692 146.36V145.36ZM89.4572 144.28L89.8512 143.361C88.3371 142.712 87.1584 141.751 86.2869 140.476L85.4612 141.04L84.6356 141.604C85.7321 143.209 87.2174 144.408 89.0633 145.199L89.4572 144.28ZM85.4612 141.04L86.2975 140.492C85.4593 139.213 84.98 137.59 84.9127 135.571L83.9132 135.604L82.9138 135.637C82.9905 137.938 83.5432 139.939 84.625 141.588L85.4612 141.04ZM83.9132 135.604L84.913 135.58C84.8891 134.58 84.8772 133.556 84.8772 132.508H83.8772H82.8772C82.8772 133.572 82.8893 134.612 82.9135 135.628L83.9132 135.604ZM83.8772 132.508H84.8772C84.8772 131.435 84.8892 130.375 84.913 129.327L83.9132 129.304L82.9135 129.281C82.8893 130.345 82.8772 131.421 82.8772 132.508H83.8772ZM83.9132 129.304L84.9127 129.338C84.9799 127.344 85.4581 125.732 86.2975 124.452L85.4612 123.904L84.625 123.356C83.5443 125.004 82.9906 126.992 82.9138 129.27L83.9132 129.304ZM85.4612 123.904L86.2912 124.462C87.1631 123.165 88.354 122.181 89.8934 121.508L89.4932 120.592L89.0931 119.676C87.2245 120.491 85.7274 121.715 84.6313 123.346L85.4612 123.904ZM89.4932 120.592L89.9041 121.504C91.4538 120.805 93.3004 120.44 95.4692 120.44V119.44V118.44C93.078 118.44 90.9407 118.843 89.0823 119.68L89.4932 120.592ZM95.4692 119.44V120.44C97.6123 120.44 99.4474 120.805 100.998 121.504L101.409 120.592L101.82 119.68C99.9631 118.843 97.8381 118.44 95.4692 118.44V119.44ZM101.409 120.592L101.009 121.508C102.549 122.181 103.739 123.165 104.611 124.462L105.441 123.904L106.271 123.346C105.175 121.715 103.678 120.491 101.809 119.676L101.409 120.592ZM105.441 123.904L104.611 124.462C105.468 125.737 105.945 127.341 105.989 129.326L106.989 129.304L107.989 129.282C107.938 126.995 107.382 124.999 106.271 123.346L105.441 123.904ZM106.989 129.304L105.99 129.349C106.038 130.39 106.061 131.443 106.061 132.508H107.061H108.061C108.061 131.413 108.037 130.33 107.988 129.259L106.989 129.304ZM107.061 132.508H106.061C106.061 133.549 106.038 134.565 105.99 135.556L106.989 135.604L107.988 135.652C108.037 134.627 108.061 133.579 108.061 132.508H107.061ZM106.989 135.604L105.99 135.571C105.923 137.586 105.433 139.205 104.575 140.482L105.405 141.04L106.235 141.598C107.345 139.947 107.912 137.942 107.989 135.637L106.989 135.604ZM105.405 141.04L104.573 140.485C103.729 141.751 102.557 142.71 101.02 143.359L101.409 144.28L101.798 145.201C103.67 144.41 105.161 143.209 106.237 141.595L105.405 141.04ZM101.409 144.28L101.015 143.361C99.4865 144.016 97.6462 144.36 95.4692 144.36V145.36V146.36C97.8522 146.36 99.972 145.984 101.803 145.199L101.409 144.28ZM95.4692 139.24V140.24C96.6909 140.24 97.7735 139.869 98.6326 139.074L97.9532 138.34L97.2738 137.606C96.837 138.011 96.2636 138.24 95.4692 138.24V139.24ZM97.9532 138.34L98.6469 139.06C99.5629 138.178 99.9347 136.885 99.9611 135.406L98.9612 135.388L97.9614 135.37C97.9398 136.579 97.6395 137.254 97.2596 137.62L97.9532 138.34ZM98.9612 135.388L99.9602 135.434C100.009 134.388 100.033 133.377 100.033 132.4H99.0332H98.0332C98.0332 133.343 98.0096 134.324 97.9623 135.342L98.9612 135.388ZM99.0332 132.4H100.033C100.033 131.4 100.009 130.388 99.9601 129.364L98.9612 129.412L97.9624 129.46C98.0096 130.452 98.0332 131.432 98.0332 132.4H99.0332ZM98.9612 129.412L99.9609 129.385C99.9341 128.393 99.7452 127.494 99.3365 126.74L98.4572 127.216L97.5779 127.692C97.7933 128.09 97.9404 128.655 97.9616 129.439L98.9612 129.412ZM98.4572 127.216L99.3517 126.769C98.9762 126.018 98.4198 125.431 97.6804 125.062L97.2332 125.956L96.786 126.85C97.1027 127.009 97.3623 127.262 97.5628 127.663L98.4572 127.216ZM97.2332 125.956L97.6972 125.07C97.0263 124.719 96.2736 124.56 95.4692 124.56V125.56V126.56C96.0088 126.56 96.4322 126.665 96.7692 126.842L97.2332 125.956ZM95.4692 125.56V124.56C94.6636 124.56 93.907 124.719 93.222 125.062L93.6692 125.956L94.1164 126.85C94.4875 126.665 94.9309 126.56 95.4692 126.56V125.56ZM93.6692 125.956L93.222 125.062C92.4906 125.427 91.9285 126.004 91.5299 126.74L92.4092 127.216L93.2885 127.692C93.514 127.276 93.7919 127.013 94.1164 126.85L93.6692 125.956ZM92.4092 127.216L91.5148 126.769C91.1416 127.515 90.9681 128.403 90.9416 129.385L91.9412 129.412L92.9409 129.439C92.9623 128.645 93.1009 128.069 93.3037 127.663L92.4092 127.216ZM91.9412 129.412L90.9415 129.388C90.9173 130.404 90.9052 131.408 90.9052 132.4H91.9052H92.9052C92.9052 131.424 92.9171 130.436 92.941 129.436L91.9412 129.412ZM91.9052 132.4H90.9052C90.9052 133.368 90.9173 134.372 90.9415 135.411L91.9412 135.388L92.941 135.365C92.9171 134.34 92.9052 133.352 92.9052 132.4H91.9052ZM91.9412 135.388L90.9419 135.424C90.9943 136.892 91.3654 138.17 92.2421 139.047L92.9492 138.34L93.6563 137.633C93.2851 137.262 92.9842 136.572 92.9406 135.352L91.9412 135.388ZM92.9492 138.34L92.2698 139.074C93.1334 139.873 94.2306 140.24 95.4692 140.24V139.24V138.24C94.6439 138.24 94.061 138.007 93.6286 137.606L92.9492 138.34ZM111.041 144.748L110.334 145.455L110.358 145.479L110.383 145.501L111.041 144.748ZM111.041 120.088L111.7 120.841L111.725 120.819L111.749 120.795L111.041 120.088ZM127.637 120.736L127.261 121.662L127.266 121.664L127.637 120.736ZM131.273 133.12L132.09 133.697L132.096 133.689L131.273 133.12ZM127.637 135.82L127.291 134.882L127.286 134.884L127.637 135.82ZM118.781 136.684V135.684H117.781V136.684H118.781ZM118.493 144.748L117.786 144.041L117.786 144.041L118.493 144.748ZM118.637 130.888H117.637V131.888H118.637V130.888ZM123.785 130.276L124.433 131.038L124.436 131.035L123.785 130.276ZM123.965 126.46L124.786 125.889L124.786 125.889L123.965 126.46ZM118.637 125.632V124.632H117.637V125.632H118.637ZM111.689 145V144C111.688 144 111.69 144 111.695 144.001C111.7 144.002 111.705 144.003 111.71 144.005C111.715 144.007 111.716 144.008 111.715 144.007C111.714 144.007 111.709 144.003 111.7 143.995L111.041 144.748L110.383 145.501C110.745 145.817 111.191 146 111.689 146V145ZM111.041 144.748L111.749 144.041C111.741 144.034 111.739 144.03 111.74 144.032C111.741 144.033 111.744 144.038 111.747 144.045C111.75 144.052 111.752 144.059 111.753 144.064C111.754 144.069 111.753 144.069 111.753 144.064H110.753H109.753C109.753 144.602 109.961 145.082 110.334 145.455L111.041 144.748ZM110.753 144.064H111.753V120.736H110.753H109.753V144.064H110.753ZM110.753 120.736H111.753C111.753 120.728 111.754 120.748 111.739 120.782C111.724 120.817 111.704 120.837 111.7 120.841L111.041 120.088L110.383 119.335C109.965 119.701 109.753 120.195 109.753 120.736H110.753ZM111.041 120.088L111.749 120.795C111.771 120.773 111.773 120.777 111.754 120.786C111.744 120.79 111.733 120.794 111.72 120.797C111.707 120.799 111.697 120.8 111.689 120.8V119.8V118.8C111.149 118.8 110.687 119.028 110.334 119.381L111.041 120.088ZM111.689 119.8V120.8H122.201V119.8V118.8H111.689V119.8ZM122.201 119.8V120.8C124.193 120.8 125.871 121.098 127.261 121.662L127.637 120.736L128.014 119.81C126.332 119.126 124.386 118.8 122.201 118.8V119.8ZM127.637 120.736L127.266 121.664C128.659 122.222 129.705 123.05 130.446 124.142L131.273 123.58L132.101 123.018C131.114 121.566 129.736 120.498 128.009 119.808L127.637 120.736ZM131.273 123.58L130.446 124.142C131.173 125.211 131.569 126.598 131.569 128.368H132.569H133.569C133.569 126.298 133.102 124.493 132.101 123.018L131.273 123.58ZM132.569 128.368H131.569C131.569 130.139 131.172 131.51 130.451 132.551L131.273 133.12L132.096 133.689C133.103 132.234 133.569 130.437 133.569 128.368H132.569ZM131.273 133.12L130.457 132.543C129.722 133.584 128.683 134.368 127.291 134.882L127.637 135.82L127.984 136.758C129.712 136.12 131.097 135.104 132.09 133.697L131.273 133.12ZM127.637 135.82L127.286 134.884C125.889 135.408 124.201 135.684 122.201 135.684V136.684V137.684C124.378 137.684 126.314 137.384 127.989 136.756L127.637 135.82ZM122.201 136.684V135.684H118.781V136.684V137.684H122.201V136.684ZM118.781 136.684H117.781V144.064H118.781H119.781V136.684H118.781ZM118.781 144.064H117.781C117.781 144.069 117.781 144.069 117.782 144.064C117.783 144.059 117.785 144.052 117.788 144.045C117.791 144.038 117.794 144.033 117.795 144.032C117.796 144.03 117.794 144.034 117.786 144.041L118.493 144.748L119.201 145.455C119.574 145.082 119.781 144.602 119.781 144.064H118.781ZM118.493 144.748L117.786 144.041C117.791 144.036 117.799 144.029 117.81 144.022C117.821 144.015 117.832 144.009 117.843 144.005C117.866 143.996 117.871 144 117.845 144V145V146C118.342 146 118.823 145.832 119.201 145.455L118.493 144.748ZM117.845 145V144H111.689V145V146H117.845V145ZM118.637 130.888V131.888H122.021V130.888V129.888H118.637V130.888ZM122.021 130.888V131.888C122.928 131.888 123.753 131.616 124.433 131.038L123.785 130.276L123.138 129.514C122.858 129.752 122.507 129.888 122.021 129.888V130.888ZM123.785 130.276L124.436 131.035C125.23 130.355 125.541 129.372 125.541 128.296H124.541H123.541C123.541 128.996 123.348 129.333 123.135 129.517L123.785 130.276ZM124.541 128.296H125.541C125.541 127.42 125.287 126.608 124.786 125.889L123.965 126.46L123.145 127.031C123.412 127.416 123.541 127.828 123.541 128.296H124.541ZM123.965 126.46L124.786 125.889C124.153 124.978 123.133 124.632 122.021 124.632V125.632V126.632C122.734 126.632 123.01 126.838 123.145 127.031L123.965 126.46ZM122.021 125.632V124.632H118.637V125.632V126.632H122.021V125.632ZM118.637 125.632H117.637V130.888H118.637H119.637V125.632H118.637ZM135.932 144.748L135.225 145.455L135.249 145.479L135.274 145.501L135.932 144.748ZM135.932 120.088L136.591 120.841L136.616 120.819L136.639 120.795L135.932 120.088ZM143.096 120.088L142.344 120.747L142.387 120.797L142.438 120.841L143.096 120.088ZM143.384 128.044H142.384V129.044H143.384V128.044ZM153.896 130.096L153.291 130.892L153.296 130.896L153.896 130.096ZM155.408 141.004L154.562 140.471L154.562 140.471L155.408 141.004ZM151.88 143.992L152.281 144.908L152.293 144.903L151.88 143.992ZM143.384 139.168H142.384V140.168H143.384V139.168ZM147.992 138.376L148.783 138.987L148.783 138.987L147.992 138.376ZM147.92 134.524L147.213 135.231L147.233 135.251L147.253 135.269L147.92 134.524ZM143.384 133.876V132.876H142.384V133.876H143.384ZM159.332 144.748L158.625 145.455L158.649 145.479L158.674 145.501L159.332 144.748ZM159.332 120.088L159.991 120.841L160.016 120.819L160.039 120.795L159.332 120.088ZM166.748 120.088L165.996 120.747L166.039 120.797L166.09 120.841L166.748 120.088ZM166.748 144.748L167.455 145.455L167.455 145.455L166.748 144.748ZM136.58 145V144C136.579 144 136.581 144 136.586 144.001C136.591 144.002 136.596 144.003 136.601 144.005C136.605 144.007 136.607 144.008 136.606 144.007C136.605 144.007 136.6 144.003 136.591 143.995L135.932 144.748L135.274 145.501C135.635 145.817 136.082 146 136.58 146V145ZM135.932 144.748L136.639 144.041C136.632 144.034 136.63 144.03 136.631 144.032C136.632 144.033 136.635 144.038 136.638 144.045C136.641 144.052 136.643 144.059 136.644 144.064C136.645 144.069 136.644 144.069 136.644 144.064H135.644H134.644C134.644 144.602 134.851 145.082 135.225 145.455L135.932 144.748ZM135.644 144.064H136.644V120.736H135.644H134.644V144.064H135.644ZM135.644 120.736H136.644C136.644 120.728 136.645 120.748 136.63 120.782C136.614 120.817 136.595 120.837 136.591 120.841L135.932 120.088L135.274 119.335C134.856 119.701 134.644 120.195 134.644 120.736H135.644ZM135.932 120.088L136.639 120.795C136.661 120.773 136.664 120.777 136.644 120.786C136.635 120.79 136.623 120.794 136.611 120.797C136.598 120.799 136.587 120.8 136.58 120.8V119.8V118.8C136.039 118.8 135.578 119.028 135.225 119.381L135.932 120.088ZM136.58 119.8V120.8H142.448V119.8V118.8H136.58V119.8ZM142.448 119.8V120.8C142.457 120.8 142.436 120.801 142.402 120.786C142.367 120.77 142.347 120.751 142.344 120.747L143.096 120.088L143.849 119.429C143.483 119.012 142.989 118.8 142.448 118.8V119.8ZM143.096 120.088L142.438 120.841C142.433 120.837 142.414 120.817 142.398 120.782C142.383 120.748 142.384 120.728 142.384 120.736H143.384H144.384C144.384 120.195 144.172 119.701 143.755 119.335L143.096 120.088ZM143.384 120.736H142.384V128.044H143.384H144.384V120.736H143.384ZM143.384 128.044V129.044H146.264V128.044V127.044H143.384V128.044ZM146.264 128.044V129.044C149.429 129.044 151.728 129.704 153.291 130.892L153.896 130.096L154.501 129.3C152.464 127.752 149.675 127.044 146.264 127.044V128.044ZM153.896 130.096L153.296 130.896C154.807 132.03 155.632 133.794 155.632 136.396H156.632H157.632C157.632 133.334 156.633 130.898 154.496 129.296L153.896 130.096ZM156.632 136.396H155.632C155.632 138.014 155.262 139.359 154.562 140.471L155.408 141.004L156.254 141.537C157.186 140.057 157.632 138.33 157.632 136.396H156.632ZM155.408 141.004L154.562 140.471C153.861 141.585 152.844 142.457 151.467 143.081L151.88 143.992L152.293 144.903C153.988 144.135 155.324 143.015 156.254 141.537L155.408 141.004ZM151.88 143.992L151.479 143.076C150.103 143.678 148.376 144 146.264 144V145V146C148.568 146 150.585 145.65 152.281 144.908L151.88 143.992ZM146.264 145V144H136.58V145V146H146.264V145ZM143.384 139.168V140.168H146.192V139.168V138.168H143.384V139.168ZM146.192 139.168V140.168C147.229 140.168 148.15 139.808 148.783 138.987L147.992 138.376L147.201 137.765C147.019 138 146.739 138.168 146.192 138.168V139.168ZM147.992 138.376L148.783 138.987C149.347 138.259 149.604 137.386 149.604 136.432H148.604H147.604C147.604 137.014 147.454 137.437 147.201 137.765L147.992 138.376ZM148.604 136.432H149.604C149.604 135.404 149.331 134.444 148.587 133.779L147.92 134.524L147.253 135.269C147.421 135.42 147.604 135.732 147.604 136.432H148.604ZM147.92 134.524L148.627 133.817C147.974 133.164 147.126 132.876 146.192 132.876V133.876V134.876C146.698 134.876 147.002 135.02 147.213 135.231L147.92 134.524ZM146.192 133.876V132.876H143.384V133.876V134.876H146.192V133.876ZM143.384 133.876H142.384V139.168H143.384H144.384V133.876H143.384ZM159.98 145V144C159.979 144 159.981 144 159.986 144.001C159.991 144.002 159.996 144.003 160.001 144.005C160.005 144.007 160.007 144.008 160.006 144.007C160.005 144.007 160 144.003 159.991 143.995L159.332 144.748L158.674 145.501C159.035 145.817 159.482 146 159.98 146V145ZM159.332 144.748L160.039 144.041C160.032 144.034 160.03 144.03 160.031 144.032C160.032 144.033 160.035 144.038 160.038 144.045C160.041 144.052 160.043 144.059 160.044 144.064C160.045 144.069 160.044 144.069 160.044 144.064H159.044H158.044C158.044 144.602 158.251 145.082 158.625 145.455L159.332 144.748ZM159.044 144.064H160.044V120.736H159.044H158.044V144.064H159.044ZM159.044 120.736H160.044C160.044 120.728 160.045 120.748 160.03 120.782C160.014 120.817 159.995 120.837 159.991 120.841L159.332 120.088L158.674 119.335C158.256 119.701 158.044 120.195 158.044 120.736H159.044ZM159.332 120.088L160.039 120.795C160.061 120.773 160.064 120.777 160.044 120.786C160.035 120.79 160.023 120.794 160.011 120.797C159.998 120.799 159.987 120.8 159.98 120.8V119.8V118.8C159.439 118.8 158.978 119.028 158.625 119.381L159.332 120.088ZM159.98 119.8V120.8H166.1V119.8V118.8H159.98V119.8ZM166.1 119.8V120.8C166.109 120.8 166.088 120.801 166.054 120.786C166.019 120.77 165.999 120.751 165.996 120.747L166.748 120.088L167.501 119.429C167.135 119.012 166.641 118.8 166.1 118.8V119.8ZM166.748 120.088L166.09 120.841C166.085 120.837 166.066 120.817 166.05 120.782C166.035 120.748 166.036 120.728 166.036 120.736H167.036H168.036C168.036 120.195 167.824 119.701 167.407 119.335L166.748 120.088ZM167.036 120.736H166.036V144.064H167.036H168.036V120.736H167.036ZM167.036 144.064H166.036C166.036 144.069 166.036 144.069 166.037 144.064C166.038 144.059 166.039 144.052 166.042 144.045C166.045 144.038 166.048 144.033 166.049 144.032C166.05 144.03 166.048 144.034 166.041 144.041L166.748 144.748L167.455 145.455C167.829 145.082 168.036 144.602 168.036 144.064H167.036ZM166.748 144.748L166.041 144.041C166.046 144.036 166.053 144.029 166.064 144.022C166.076 144.015 166.087 144.009 166.098 144.005C166.12 143.996 166.125 144 166.1 144V145V146C166.597 146 167.078 145.832 167.455 145.455L166.748 144.748ZM166.1 145V144H159.98V145V146H166.1V145Z" fill="url(#paint6_linear_487_4753)" mask="url(#path-10-outside-2_487_4753)"/>
<defs>
<linearGradient id="paint0_linear_487_4753" x1="115.982" y1="12.6899" x2="115.982" y2="54.0487" gradientUnits="userSpaceOnUse">
<stop stop-color="#FFF187"/>
<stop offset="1" stop-color="#FFA412"/>
</linearGradient>
<linearGradient id="paint1_linear_487_4753" x1="19.296" y1="72.0295" x2="28.2299" y2="116.134" gradientUnits="userSpaceOnUse">
<stop stop-color="#FFF15B"/>
<stop offset="1" stop-color="#FF9F4B"/>
</linearGradient>
<linearGradient id="paint2_linear_487_4753" x1="209.742" y1="72.0298" x2="200.808" y2="116.134" gradientUnits="userSpaceOnUse">
<stop stop-color="#FFF15B"/>
<stop offset="1" stop-color="#FF9F4B"/>
</linearGradient>
<linearGradient id="paint3_linear_487_4753" x1="115.5" y1="68" x2="115.5" y2="111" gradientUnits="userSpaceOnUse">
<stop stop-color="#FAFF5B"/>
<stop offset="1" stop-color="#FF4842"/>
</linearGradient>
<linearGradient id="paint4_linear_487_4753" x1="115.5" y1="68" x2="115.5" y2="111" gradientUnits="userSpaceOnUse">
<stop stop-color="#F9E593"/>
<stop offset="1" stop-color="#C8250F"/>
</linearGradient>
<linearGradient id="paint5_linear_487_4753" x1="115.5" y1="111" x2="115.5" y2="154" gradientUnits="userSpaceOnUse">
<stop stop-color="#FAFF5B"/>
<stop offset="1" stop-color="#FF4842"/>
</linearGradient>
<linearGradient id="paint6_linear_487_4753" x1="115.5" y1="111" x2="115.5" y2="154" gradientUnits="userSpaceOnUse">
<stop stop-color="#F9E593"/>
<stop offset="1" stop-color="#C8250F"/>
</linearGradient>
<clipPath id="clip0_487_4753">
<rect width="45" height="45" fill="white" transform="translate(0 75.9338) rotate(-11.4511)"/>
</clipPath>
<clipPath id="clip1_487_4753">
<rect width="45" height="45" fill="white" transform="matrix(-0.980094 -0.198532 -0.198532 0.980094 229.038 75.9341)"/>
</clipPath>
</defs>
</svg>
